<?xml version="1.0" encoding="utf-8"?>
<svg version="1.1" xmlns:xlink="http://www.w3.org/1999/xlink" width="75px" height="36px" xmlns="http://www.w3.org/2000/svg">
  <defs>
    <pattern id="BGPattern" patternUnits="userSpaceOnUse" alignment="0 0" imageRepeat="None" />
    <mask fill="white" id="Clip142">
      <path d="M 0 21  L 0 10  C 0 4.399999999999977  4.399999999999977 0  10 0  L 65 0  C 70.60000000000002 0  75 4.399999999999977  75 10  L 75 21  C 75 26.600000000000023  70.60000000000002 31  65 31  L 20.543209876543187 31  L 15.358024691358084 36  L 10 31  C 4.399999999999977 31  0 26.600000000000023  0 21  Z " fill-rule="evenodd" />
    </mask>
  </defs>
  <g transform="matrix(1 0 0 1 -652 -585 )">
    <path d="M 0 21  L 0 10  C 0 4.399999999999977  4.399999999999977 0  10 0  L 65 0  C 70.60000000000002 0  75 4.399999999999977  75 10  L 75 21  C 75 26.600000000000023  70.60000000000002 31  65 31  L 20.543209876543187 31  L 15.358024691358084 36  L 10 31  C 4.399999999999977 31  0 26.600000000000023  0 21  Z " fill-rule="nonzero" fill="rgba(215, 215, 215, 1)" stroke="none" transform="matrix(1 0 0 1 652 585 )" class="fill" />
    <path d="M 0 21  L 0 10  C 0 4.399999999999977  4.399999999999977 0  10 0  L 65 0  C 70.60000000000002 0  75 4.399999999999977  75 10  L 75 21  C 75 26.600000000000023  70.60000000000002 31  65 31  L 20.543209876543187 31  L 15.358024691358084 36  L 10 31  C 4.399999999999977 31  0 26.600000000000023  0 21  Z " stroke-width="0" stroke-dasharray="0" stroke="rgba(215, 215, 215, 1)" fill="none" transform="matrix(1 0 0 1 652 585 )" class="stroke" mask="url(#Clip142)" />
  </g>
</svg>