<svg width="69" height="68" viewBox="0 0 69 68" fill="none" xmlns="http://www.w3.org/2000/svg">
<path fill-rule="evenodd" clip-rule="evenodd" d="M33.8346 28.5C33.5585 28.5 33.3346 28.7239 33.3346 29V32.6667H29.668C29.3918 32.6667 29.168 32.8905 29.168 33.1667V34.5C29.168 34.7761 29.3918 35 29.668 35H33.3346V38.6667C33.3346 38.9428 33.5585 39.1667 33.8346 39.1667H35.168C35.4441 39.1667 35.668 38.9428 35.668 38.6667V35H39.3346C39.6108 35 39.8346 34.7761 39.8346 34.5V33.1667C39.8346 32.8905 39.6108 32.6667 39.3346 32.6667H35.668V29C35.668 28.7239 35.4441 28.5 35.168 28.5H33.8346Z" fill="#4E5969"/>
</svg>
