<?xml version="1.0" encoding="utf-8"?>
<svg version="1.1" xmlns:xlink="http://www.w3.org/1999/xlink" width="130px" height="106px" xmlns="http://www.w3.org/2000/svg">
  <defs>
    <pattern id="BGPattern" patternUnits="userSpaceOnUse" alignment="0 0" imageRepeat="None" />
    <mask fill="white" id="Clip286">
      <path d="M 0 97  L 0 3  C 0 1.3200000000001637  1.3199999999999932 0  3 0  L 127 0  C 128.68 0  130 1.3200000000001637  130 3  L 130 97  C 130 98.67999999999984  128.68 100  127 100  L 115.80099502487565 100  L 107.34328358208958 106  L 100.87562189054728 100  L 3 100  C 1.3199999999999932 100  0 98.67999999999984  0 97  Z " fill-rule="evenodd" />
    </mask>
  </defs>
  <g>
    <path d="M 0 97  L 0 3  C 0 1.3200000000001637  1.3199999999999932 0  3 0  L 127 0  C 128.68 0  130 1.3200000000001637  130 3  L 130 97  C 130 98.67999999999984  128.68 100  127 100  L 115.80099502487565 100  L 107.34328358208958 106  L 100.87562189054728 100  L 3 100  C 1.3199999999999932 100  0 98.67999999999984  0 97  Z " fill-rule="nonzero" fill="rgba(242, 242, 242, 1)" stroke="none" class="fill" />
    <path d="M 0 97  L 0 3  C 0 1.3200000000001637  1.3199999999999932 0  3 0  L 127 0  C 128.68 0  130 1.3200000000001637  130 3  L 130 97  C 130 98.67999999999984  128.68 100  127 100  L 115.80099502487565 100  L 107.34328358208958 106  L 100.87562189054728 100  L 3 100  C 1.3199999999999932 100  0 98.67999999999984  0 97  Z " stroke-width="0" stroke-dasharray="0" stroke="rgba(215, 215, 215, 1)" fill="none" class="stroke" mask="url(#Clip286)" />
  </g>
</svg>