<?xml version="1.0" encoding="utf-8"?>
<svg version="1.1" xmlns:xlink="http://www.w3.org/1999/xlink" width="110px" height="106px" xmlns="http://www.w3.org/2000/svg">
  <defs>
    <pattern id="BGPattern" patternUnits="userSpaceOnUse" alignment="0 0" imageRepeat="None" />
    <mask fill="white" id="Clip289">
      <path d="M 0 97  L 0 3  C 0 1.3200000000001637  1.3199999999999932 0  3 0  L 107 0  C 108.68000000000006 0  110 1.3200000000001637  110 3  L 110 97  C 110 98.67999999999984  108.68000000000006 100  107 100  L 95.80099502487565 100  L 87.34328358208961 106  L 80.87562189054728 100  L 3 100  C 1.3199999999999932 100  0 98.67999999999984  0 97  Z " fill-rule="evenodd" />
    </mask>
  </defs>
  <g transform="matrix(1 0 0 1 -150 -117 )">
    <path d="M 0 97  L 0 3  C 0 1.3200000000001637  1.3199999999999932 0  3 0  L 107 0  C 108.68000000000006 0  110 1.3200000000001637  110 3  L 110 97  C 110 98.67999999999984  108.68000000000006 100  107 100  L 95.80099502487565 100  L 87.34328358208961 106  L 80.87562189054728 100  L 3 100  C 1.3199999999999932 100  0 98.67999999999984  0 97  Z " fill-rule="nonzero" fill="rgba(242, 242, 242, 1)" stroke="none" transform="matrix(1 0 0 1 150 117 )" class="fill" />
    <path d="M 0 97  L 0 3  C 0 1.3200000000001637  1.3199999999999932 0  3 0  L 107 0  C 108.68000000000006 0  110 1.3200000000001637  110 3  L 110 97  C 110 98.67999999999984  108.68000000000006 100  107 100  L 95.80099502487565 100  L 87.34328358208961 106  L 80.87562189054728 100  L 3 100  C 1.3199999999999932 100  0 98.67999999999984  0 97  Z " stroke-width="0" stroke-dasharray="0" stroke="rgba(215, 215, 215, 1)" fill="none" transform="matrix(1 0 0 1 150 117 )" class="stroke" mask="url(#Clip289)" />
  </g>
</svg>