<svg t="1691561091010" class="icon" viewBox="0 0 1024 1024" version="1.1" xmlns="http://www.w3.org/2000/svg" p-id="12760" width="48" height="48"><path d="M724.18292 779.524409c-32.110227 1.824445-121.143129-12.406224-186.944768-44.516451-65.923269-32.110227-110.43972-32.110227-110.43972-32.110227-97.303718-10.825039-163.591876 39.894524-206.527141 66.653047-49.016748 30.529041-67.747714 38.434969-67.747713 38.434969l72.977788 89.032901s80.397197-1.946074 128.197648-10.703409c103.26357-18.974225 144.252762 17.514669 222.582255 29.434375 61.787861 0 124.670388-54.368452 124.670388-54.368452s-204.824326 1.824445-204.824326-14.230669 116.034683-9.852001 116.034683-9.852001 55.828008 7.541038 127.954389-4.378668c46.827414-7.662668 60.571564-21.406818 58.74712-40.989191-1.581185-19.582373-42.570377-14.230669-74.680603-12.406224z" p-id="12761" fill="#8a8a8a"></path><path d="M727.223661 653.394465l-113.115572 87.451716s4.135408 25.055707 19.704003 17.149781c15.568595-7.905927 144.617651-96.69557 144.61765-96.69557-7.297779-37.705191-51.206081-7.905927-51.206081-7.905927zM701.438176 760.671814c27.974819-15.690224 143.887873-85.992161 143.887872-85.992161-3.40563-46.340896-53.517045-16.055113-53.517045-16.055113s-123.818981 86.35705-137.441501 95.844162c-13.74415 9.730372 19.217484 22.014966 47.070674 6.203112zM812.486043 705.208695l-116.277942 67.382824h81.126974s68.84238-42.205488 75.653641-67.382824c6.81126-25.177337-40.502673 0-40.502673 0zM507.925407 658.867799l44.516451 45.246229 44.516451-45.367859c165.53795-148.509799 273.788336-248.610999 273.788335-371.213683 0-100.1012-76.383418-177.579285-175.146692-177.579285-54.125193 0-108.250386 25.907115-143.279724 67.869343C517.29089 135.738686 463.165697 109.953201 409.040504 109.953201c-98.763274 0-175.146692 77.599715-175.146692 177.579285 0.243259 122.724314 108.493645 222.703884 274.031595 371.335313z" p-id="12762" fill="#8a8a8a"></path></svg>