<svg t="1691560712341" class="icon" viewBox="0 0 1024 1024" version="1.1" xmlns="http://www.w3.org/2000/svg" p-id="2460" width="48" height="48"><path d="M345.662439 252.353561c-155.24839 0-281.225366 109.592976-281.225366 244.661073S190.414049 741.675707 345.662439 741.675707c8.99122 0 17.782634-0.39961 26.574049-1.098927-0.499512 63.737756-73.827902 113.489171-73.827903 113.489171 183.420878-61.639805 256.849171-171.032976 282.424195-223.082146 28.971707-38.462439 45.955122-84.517463 45.955122-133.869268 0.099902-135.168-125.877073-244.760976-281.125463-244.760976zM193.810732 532.87961c-19.780683 0-35.864976-15.98439-35.864976-35.864976 0-19.780683 15.98439-35.864976 35.864976-35.864975s35.864976 15.98439 35.864975 35.864975c0.099902 19.880585-15.98439 35.864976-35.864975 35.864976z m151.851707 0c-19.780683 0-35.864976-15.98439-35.864976-35.864976 0-19.780683 15.98439-35.864976 35.864976-35.864975 19.780683 0 35.864976 15.98439 35.864976 35.864975 0.099902 19.880585-16.084293 35.864976-35.864976 35.864976z m151.751805 0c-19.780683 0-35.864976-15.98439-35.864976-35.864976 0-19.780683 15.98439-35.864976 35.864976-35.864975s35.864976 15.98439 35.864976 35.864975-15.98439 35.864976-35.864976 35.864976z" p-id="2461" fill="#8a8a8a"></path><path d="M824.09522 169.934049H583.829854c-55.046244 0-102.699707 33.367415-123.779122 80.721171 37.063805 13.287024 70.43122 32.768 98.503805 57.244097 54.946341 47.753366 89.71239 114.787902 89.71239 189.21522 0 53.64761-18.182244 103.698732-49.052098 145.158243-0.699317 1.398634-1.498537 2.997073-2.397658 4.595513 45.85522 34.865951 105.397073 68.632976 182.821463 94.607609 0 0-93.908293-63.637854-80.221658-141.761561h124.678244c74.427317 0 135.467707-60.940488 135.467707-135.467707V305.201951c0-74.427317-61.04039-135.267902-135.467707-135.267902z" p-id="2462" fill="#8a8a8a"></path></svg>