<svg t="1691560520108" class="icon" viewBox="0 0 1024 1024" version="1.1" xmlns="http://www.w3.org/2000/svg" p-id="36753" width="48" height="48"><path d="M216 184m-24 0a24 24 0 1 0 48 0 24 24 0 1 0-48 0Z" fill="#8a8a8a" p-id="36754"></path><path d="M968 18.112a16 16 0 0 0-21.824 5.952l-151.216 264.496A124.096 124.096 0 0 0 784 288a127.424 127.424 0 0 0-63.52 16.88l62.992-236.8a16 16 0 0 0-30.944-8.224l-64 240.624a127.12 127.12 0 0 0-168.144-22.48 127.872 127.872 0 0 0-222.176 24A126.4 126.4 0 0 0 240 288a127.824 127.824 0 0 0-118.576 176h781.152a127.6 127.6 0 0 0-74.928-168.176L973.888 40a16 16 0 0 0-5.888-21.888zM424 384a24 24 0 1 1 24-24 24 24 0 0 1-24 24z" fill="#8a8a8a" p-id="36755"></path><path d="M536 136m-24 0a24 24 0 1 0 48 0 24 24 0 1 0-48 0Z" fill="#8a8a8a" p-id="36756"></path><path d="M960 496H64a16 16 0 0 0-16 16 462.064 462.064 0 0 0 255.088 414.288A16.192 16.192 0 0 0 310.4 928h403.36a16.192 16.192 0 0 0 7.232-1.712A462.064 462.064 0 0 0 976 512a16 16 0 0 0-16-16z" fill="#8a8a8a" p-id="36757"></path></svg>