<svg t="1691557563934" class="icon" viewBox="0 0 1024 1024" version="1.1" xmlns="http://www.w3.org/2000/svg" p-id="15847" width="48" height="48"><path d="M200.327516 554.572334l44.519419 85.018201c17.617701 15.059114 34.175416 16.41151 42.472549 4.642008 8.297133-11.769502-0.986884-54.242051-5.59234-80.705153L233.516049 187.341955c-6.104058-34.796787 17.069432-69.959087 51.90277-76.063145 34.833338-6.067507 68.094973 19.189405 74.199032 53.986192l68.716344 305.166361c3.179958 7.493006 9.101261 8.516441 9.210915-1.827562L434.511356 67.417313a63.964682 63.964682 0 0 1 127.856262-6.688878l22.332812 403.160255c-0.073102 4.642008 4.020637 5.775097 4.459253 0.402064l40.352576-317.666888c4.422701-35.089197 36.405042-61.84471 71.421137-57.385458 35.089197 4.38615 59.980596 38.415361 55.557896 73.468006l-31.36097 370.995158c0.328961 6.579224 2.668241 10.161247 5.336482 1.608255l64.988117-205.893175c10.051593-33.846455 45.579405-55.119281 79.498962-45.067688 33.846455 10.088144 53.255167 47.662826 43.167023 81.509281l-109.726844 439.528746c-0.548269 2.448934-1.16964 4.824765-1.791011 7.237147-31.06856 115.867453-132.863783 203.078729-258.015253 209.621402-80.047231 4.203393-164.773022-19.664571-230.638369-64.951566-70.580458-37.574682-193.794712-246.611264-193.794712-246.611264-19.664571-40.352577-68.716344-123.177703-37.172618-158.230348 34.760236-38.707771 86.260943-25.658975 113.381969 2.156523z" fill="#8a8a8a" p-id="15848"></path></svg>