<svg t="1691561059513" class="icon" viewBox="0 0 1024 1024" version="1.1" xmlns="http://www.w3.org/2000/svg" p-id="10611" width="48" height="48"><path d="M554.666667 512a42.666667 42.666667 0 1 1-85.333334 0 42.666667 42.666667 0 0 1 85.333334 0z m170.666666-42.666667A42.666667 42.666667 0 1 0 725.333333 554.666667 42.666667 42.666667 0 0 0 725.333333 469.333333z m-384 42.666667a42.666667 42.666667 0 1 0-85.333333 0 42.666667 42.666667 0 0 0 85.333333 0z m0-213.333333a42.666667 42.666667 0 1 0 0 85.333333 42.666667 42.666667 0 0 0 0-85.333333z m341.333334 341.333333A42.666667 42.666667 0 1 0 682.666667 725.333333 42.666667 42.666667 0 0 0 682.666667 640z m-341.333334 0a42.666667 42.666667 0 1 0 0 85.333333 42.666667 42.666667 0 0 0 0-85.333333z m170.666667-384a42.666667 42.666667 0 1 0 0 85.333333 42.666667 42.666667 0 0 0 0-85.333333z m0 426.666667A42.666667 42.666667 0 1 0 512 768 42.666667 42.666667 0 0 0 512 682.666667z m469.333333-170.666667a469.162667 469.162667 0 1 1-285.312-431.786667 190.976 190.976 0 0 0 247.808 247.765334c24.832 58.154667 37.546667 120.746667 37.546667 183.978666z m-85.333333 0c0.042667-28.8-3.157333-57.514667-9.557333-85.632a277.632 277.632 0 0 1-288.853334-288.853333A384.042667 384.042667 0 1 0 896 512z" fill="#8a8a8a" p-id="10612"></path></svg>