<svg t="1691560864176" class="icon" viewBox="0 0 1024 1024" version="1.1" xmlns="http://www.w3.org/2000/svg" p-id="7468" width="48" height="48"><path d="M913.2 2H696.1c-19.8 0-35.9 16.8-35.9 37.2v326.6c0 9.8-7.7 17.7-17.1 17.7H124.3c-29.4 0-52.5 26.5-49.1 56.8 10.3 90.8 54.6 260.2 240.1 276.1C569.9 738.2 366.2 942 366.2 942s-58 50.9 3.5 80h410.1c18.9 0 34.2-15.9 34.2-35.5v-529c0-24.5 19.1-44.3 42.7-44.3h56.4c19.8 0 35.9-16.8 35.9-37.2V39.2C949.1 18.8 933 2 913.2 2zM109 366.3h478.1c18.8 0 34.2-16.4 34.2-36.4s-15.4-36.4-34.2-36.4H109c-18.8 0-34.2 16.4-34.2 36.4 0.1 20 15.4 36.4 34.2 36.4z" fill="#8a8a8a" p-id="7469"></path></svg>