<svg t="1691560413158" class="icon" viewBox="0 0 1024 1024" version="1.1" xmlns="http://www.w3.org/2000/svg" p-id="34113" width="64" height="64"><path d="M976.274286 736h-160.036572v47.981714c0 25.6-22.381714 48.018286-47.981714 48.018286-25.6 0-47.981714-22.418286-47.981714-48.018286v-47.981714h-320c-19.2 0-32.036571 12.8-32.036572 32v128c0 35.218286 28.818286 64 64 64v32c0 19.2 12.8 32 32.036572 32h448c19.163429 0 32-12.8 32-32v-32a64.182857 64.182857 0 0 0 64-64V768a32.109714 32.109714 0 0 0-32-32zM3.474286 908.8c-22.418286 28.781714 70.4 121.6 96 96l124.781714-124.781714-95.963429-96.073143L3.474286 908.8z m428.763428-236.8l201.618286-201.581714a30.939429 30.939429 0 0 0 0-44.836572c-28.781714-22.381714-60.818286-86.381714-96-51.2L176.274286 736l96.036571 96 32-32V768c0-54.381714 41.545143-96 96-96h32zM563.456 230.4c-35.181714 44.8-25.6 108.8 25.6 121.6-12.8-67.181714 25.6-57.6 60.781714-102.4 28.818286-44.8 22.418286-105.618286-31.963428-150.381714-32.036571-25.6-54.418286-48.018286-32.036572-99.218286-64 15.981714-83.163429 92.781714-28.781714 156.781714 38.4 48.018286 6.4 67.218286 6.4 73.618286z" fill="#8a8a8a" p-id="34114"></path></svg>