<svg t="1691562482662" class="icon" viewBox="0 0 1024 1024" version="1.1" xmlns="http://www.w3.org/2000/svg" p-id="44184" width="48" height="48"><path d="M461.44 266.88c56.32 1.28 102.4-44.8 101.76-101.76-1.28-53.12-44.8-96.64-97.92-97.28-56.32-1.28-102.4 44.8-101.76 101.76 0.64 53.12 44.16 96.64 97.92 97.28zM348.8 665.6s-119.68-58.24-167.68-69.76a19.584 19.584 0 0 0-23.04 14.08c-14.72 53.76-74.88 252.8-93.44 318.72-3.2 12.8 5.76 24.96 19.2 24.96h35.2c8.32 0 15.36-4.48 18.56-12.16 19.84-48 78.72-225.92 87.68-225.92 67.2-0.64 123.52 86.4 120.96 112-2.56 32-21.12 70.4-35.2 96.64-7.04 13.44 2.56 29.44 17.28 29.44h40.32c7.04 0 13.44-3.84 17.28-9.6 35.84-60.8 48-98.56 48-120.96 0-55.68-54.4-143.36-85.12-157.44z m0 0" p-id="44185" fill="#8a8a8a"></path><path d="M956.16 911.36L789.12 595.2c-26.88-46.72-83.84-13.44-110.72 33.28L606.08 729.6l-38.4-36.48c0.64-4.48 0.64-10.24 0-16.64-12.8-71.04-67.84-316.16-107.52-355.2-1.28-1.28-2.56-2.56-4.48-3.2L331.52 252.16a38.4 38.4 0 0 0-20.48-4.48c-42.88 1.92-141.44 16.64-172.8 21.12a22.4 22.4 0 0 0-14.72 10.24c-10.24 19.84-39.04 68.48-55.04 106.24-6.4 14.72-3.2 32 8.32 43.52l21.12 17.28 74.24 56.96c6.4 5.12 9.6 13.44 7.04 21.76-6.4 20.48-0.64 5.76-3.2 15.36s2.56 19.84 12.16 23.68c33.92 12.16 124.8 60.16 160 69.76 9.6 2.56 8.32-7.04 12.16-16.64l-4.48-5.12 217.6 167.04-87.04 147.84c-7.68 13.44 1.92 30.08 17.28 30.08h426.24c23.04-0.64 37.76-25.6 26.24-45.44zM243.2 359.04c-9.6 17.92-17.92 38.4-29.44 67.2-5.12 13.44-21.76 17.28-32 7.04l-39.68-37.12c-1.92-1.28 14.72-37.76 24.96-56.96 3.84-6.4 10.24-10.88 17.92-10.24l41.6 1.28c14.72 0 23.68 16 16.64 28.8z m136.96 192l26.88-65.92c7.04-17.28 32-16.64 37.12 1.28 14.08 46.08 34.56 116.48 55.68 163.2L380.16 551.04z m0 0" p-id="44186" fill="#8a8a8a"></path></svg>