<svg t="1691562207320" class="icon" viewBox="0 0 1024 1024" version="1.1" xmlns="http://www.w3.org/2000/svg" p-id="35894" width="48" height="48"><path d="M129.969231 421.415385c0-141.784615 63.015385-267.815385 165.415384-350.523077C157.538462 145.723077 63.015385 295.384615 63.015385 468.676923c0 252.061538 204.8 452.923077 452.923077 452.923077 110.276923 0 208.738462-39.384615 287.507692-102.4-66.953846 35.446154-141.784615 55.138462-220.553846 55.138462-248.123077 0-452.923077-204.8-452.923077-452.923077" fill="#FCC56B" p-id="35895"></path><path d="M968.861538 468.676923C968.861538 216.615385 764.061538 15.753846 515.938462 15.753846c-78.769231 0-153.6 19.692308-220.553847 55.138462C196.923077 153.6 129.969231 279.630769 129.969231 421.415385c0 252.061538 204.8 452.923077 452.923077 452.923077 78.769231 0 153.6-19.692308 220.553846-55.138462 102.4-86.646154 165.415385-212.676923 165.415384-350.523077" fill="#FDDF6D" p-id="35896"></path><path d="M508.061538 941.292308C252.061538 941.292308 39.384615 728.615385 39.384615 468.676923S252.061538 0 508.061538 0c7.876923 0 15.753846 7.876923 15.753847 15.753846s-7.876923 15.753846-15.753847 15.753846C267.815385 31.507692 70.892308 228.430769 70.892308 468.676923S267.815385 905.846154 508.061538 905.846154 945.230769 712.861538 945.230769 468.676923c0-177.230769-106.338462-334.769231-267.815384-401.723077-7.876923-3.938462-11.815385-11.815385-7.876923-23.630769 3.938462-7.876923 11.815385-11.815385 19.692307-7.876923 177.230769 74.830769 287.507692 244.184615 287.507693 433.230769 3.938462 259.938462-208.738462 472.615385-468.676924 472.615385" fill="" p-id="35897"></path><path d="M626.215385 27.569231c0 11.815385-7.876923 19.692308-19.692308 19.692307S590.769231 39.384615 590.769231 27.569231s7.876923-19.692308 19.692307-19.692308 15.753846 11.815385 15.753847 19.692308" fill="" p-id="35898"></path><path d="M551.384615 724.676923h-78.76923c-23.630769 0-39.384615-19.692308-39.384616-43.323077l27.569231-220.553846c0-27.569231 23.630769-47.261538 51.2-47.261538 27.569231 0 51.2 19.692308 51.2 47.261538l27.569231 220.553846c3.938462 23.630769-15.753846 43.323077-39.384616 43.323077" fill="#DD6B73" p-id="35899"></path><path d="M445.046154 685.292308c0 7.876923 3.938462 15.753846 7.876923 19.692307 3.938462 3.938462 11.815385 7.876923 19.692308 7.876923h78.76923c7.876923 0 15.753846-3.938462 19.692308-7.876923 3.938462-3.938462 7.876923-11.815385 7.876923-19.692307l-27.569231-220.553846c0-19.692308-19.692308-35.446154-39.384615-35.446154s-39.384615 15.753846-39.384615 35.446154l-27.569231 220.553846z m106.338461 51.2h-78.76923c-15.753846 0-27.569231-3.938462-39.384616-15.753846-11.815385-11.815385-15.753846-23.630769-15.753846-39.384616l27.569231-220.553846c0-31.507692 27.569231-59.076923 63.015384-59.076923 31.507692 0 59.076923 27.569231 63.015385 59.076923l27.569231 220.553846c0 15.753846-3.938462 27.569231-15.753846 39.384616-3.938462 11.815385-15.753846 15.753846-31.507693 15.753846z" fill="" p-id="35900"></path><path d="M704.984615 185.107692c-7.876923 23.630769-59.076923 27.569231-110.276923 11.815385-51.2-19.692308-86.646154-55.138462-78.76923-78.769231 7.876923-23.630769 59.076923-27.569231 110.276923-11.815384 55.138462 19.692308 86.646154 55.138462 78.76923 78.76923" fill="#FCEB88" p-id="35901"></path><path d="M169.353846 551.384615c0-27.569231 23.630769-51.2 51.2-51.2 31.507692-3.938462 55.138462 19.692308 55.138462 51.2H169.353846zM748.307692 551.384615c0-27.569231 23.630769-51.2 51.2-51.2 27.569231 0 51.2 23.630769 51.2 51.2H748.307692z" fill="#F9A87F" p-id="35902"></path><path d="M334.769231 334.769231h-3.938462L200.861538 291.446154c-7.876923-3.938462-11.815385-11.815385-11.815384-19.692308 3.938462-7.876923 11.815385-11.815385 19.692308-11.815384l129.96923 43.323076c11.815385 3.938462 15.753846 11.815385 11.815385 19.692308 0 7.876923-7.876923 11.815385-15.753846 11.815385M389.907692 374.153846H169.353846c-7.876923 0-15.753846-7.876923-15.753846-15.753846s7.876923-15.753846 15.753846-15.753846h216.615385c7.876923 0 15.753846 7.876923 15.753846 15.753846s-3.938462 15.753846-11.815385 15.753846M693.169231 334.769231c-7.876923 0-11.815385-3.938462-15.753846-11.815385-3.938462-7.876923 0-19.692308 11.815384-19.692308l129.969231-43.323076c7.876923-3.938462 19.692308 0 19.692308 11.815384 3.938462 7.876923 0 19.692308-11.815385 19.692308l-129.969231 43.323077h-3.938461M858.584615 374.153846h-216.615384c-7.876923 0-15.753846-7.876923-15.753846-15.753846s7.876923-15.753846 15.753846-15.753846h216.615384c7.876923 0 15.753846 7.876923 15.753847 15.753846s-3.938462 15.753846-15.753847 15.753846" fill="" p-id="35903"></path><path d="M862.523077 882.215385c-15.753846 0-27.569231 11.815385-27.569231 27.56923s11.815385 27.569231 27.569231 27.569231c15.753846 0 27.569231-11.815385 27.569231-27.569231s-11.815385-27.569231-27.569231-27.56923z m-708.923077 7.876923c-11.815385 0-19.692308 7.876923-19.692308 19.692307s7.876923 19.692308 19.692308 19.692308 19.692308-7.876923 19.692308-19.692308-7.876923-19.692308-19.692308-19.692307z m669.538462 43.323077c-3.938462-11.815385-7.876923-27.569231-7.876924-43.323077V374.153846h-157.538461v515.938462c0 15.753846-3.938462 27.569231-7.876923 43.323077l-3.938462 7.876923c-3.938462-3.938462-7.876923-7.876923-15.753846-7.876923-11.815385 0-19.692308 7.876923-19.692308 19.692307s7.876923 19.692308 19.692308 19.692308h3.938462l-11.815385 27.569231c0 3.938462 0 7.876923 7.876923 7.876923h212.676923c3.938462 0 7.876923-3.938462 7.876923-7.876923l-27.56923-66.953846z m-441.107693 0c-3.938462-11.815385-7.876923-27.569231-7.876923-43.323077V374.153846h-157.538461v515.938462c0 15.753846-3.938462 27.569231-7.876923 43.323077l-27.569231 66.953846c0 3.938462 0 7.876923 7.876923 7.876923h212.676923c3.938462 0 7.876923-3.938462 7.876923-7.876923l-27.569231-66.953846z" fill="#87C8FC" p-id="35904"></path></svg>