<svg t="1691562529993" class="icon" viewBox="0 0 1024 1024" version="1.1" xmlns="http://www.w3.org/2000/svg" p-id="48849" width="48" height="48"><path d="M510.537143 276.967619c-109.226667 0-197.485714 87.771429-197.485714 196.510476s88.746667 196.022857 197.485714 196.022857c109.226667 0 197.485714-87.771429 197.485714-196.022857s-88.259048-196.510476-197.485714-196.510476z m87.283809 232.106667H502.247619c-13.165714-1.462857-23.893333-12.190476-23.893333-25.356191V351.085714c0-12.190476 8.289524-22.918095 20.48-25.35619 15.60381-2.438095 27.794286 9.752381 27.794285 23.893333v98.011429c0 7.314286 4.87619 12.190476 12.190477 12.190476h58.514285c12.190476 0 22.918095 8.289524 25.356191 20.48 1.462857 15.60381-10.24 28.769524-24.868572 28.769524z" fill="#8a8a8a" p-id="48850"></path><path d="M850.895238 24.380952h-682.666667C87.771429 24.380952 21.942857 90.209524 21.942857 170.666667v682.666666c0 80.457143 65.828571 146.285714 146.285714 146.285715h682.666667c80.457143 0 146.285714-65.828571 146.285714-146.285715V170.666667c0-80.457143-65.828571-146.285714-146.285714-146.285715zM750.933333 603.184762c-9.264762 17.554286-20.967619 34.133333-33.645714 48.761905l-172.129524 175.542857c-17.554286 30.72-47.786667 23.405714-67.779047-5.36381l-157.013334-152.137143c-51.687619-49.249524-83.382857-118.491429-83.382857-195.047619 0-149.699048 122.392381-271.11619 273.554286-271.11619s273.554286 121.417143 273.066667 271.11619c-0.487619 46.32381-12.190476 89.721905-32.670477 128.24381z" fill="#8a8a8a" p-id="48851"></path></svg>