<svg t="1691562584234" class="icon" viewBox="0 0 1024 1024" version="1.1" xmlns="http://www.w3.org/2000/svg" p-id="53144" width="48" height="48"><path d="M704.420571 203.428571H606.72v-2.56l99.84-131.584c9.014857-11.574857 12.434286-18.834286 12.434286-26.569142 0-13.293714-10.276571-21.430857-24.429715-21.430858h-137.563428c-12.854857 0-22.710857 8.576-22.710857 21.869715 0 14.134857 9.856 22.272 22.710857 22.272H649.142857v2.56l-101.138286 131.163428c-8.996571 11.574857-12.434286 17.993143-12.434285 26.989715 0 12.434286 9.874286 21.430857 24.009143 21.430857h144.841142c12.873143 0 22.308571-8.137143 22.308572-22.290286 0-13.275429-9.435429-21.851429-22.308572-21.851429z m200.594286 163.712h-69.010286v-1.718857l71.131429-93.001143c8.137143-10.697143 11.574857-17.554286 11.574857-25.270857 0-12.434286-9.856-20.150857-23.131428-20.150857h-105.014858c-11.995429 0-20.992 8.155429-20.992 20.571429 0 13.714286 8.996571 21.430857 20.992 21.430857h62.153143v1.718857l-70.710857 93.001143c-8.155429 10.276571-11.154286 16.713143-11.154286 25.709714 0 11.574857 8.996571 20.132571 22.308572 20.132572h111.835428c12.434286 0 21.010286-8.137143 21.010286-20.992 0-12.854857-8.576-21.430857-21.010286-21.430858zM475.117714 1002.715429c156.013714 0 282.88-79.286857 340.297143-216.429715 7.277714-17.133714 5.997714-31.268571-2.56-39.862857-6.436571-6.857143-19.730286-7.716571-33.444571-2.139428-35.565714 14.153143-76.708571 20.150857-121.289143 20.150857-192 0-317.568-121.728-317.568-306.870857 0-50.56 9.874286-106.697143 23.149714-132.845715 8.137143-16.713143 8.137143-30.866286 1.28-39.424-7.716571-9.435429-21.851429-11.154286-40.283428-4.717714-136.722286 50.139429-226.724571 193.28-226.724572 352.274286 0 212.571429 160.292571 369.865143 377.142857 369.865143z m240.859429-488.996572h-58.697143V512l60.416-80.146286c7.716571-10.715429 11.154286-16.713143 11.154286-23.990857 0-12.013714-9.435429-19.291429-21.869715-19.291428h-92.562285c-11.574857 0-20.150857 7.716571-20.150857 19.712 0 12.854857 8.576 20.150857 20.150857 20.150857h51.419428v1.700571l-59.574857 79.725714c-7.716571 10.276571-10.715429 16.274286-10.715428 24.429715 0 11.154286 8.594286 19.712 21.010285 19.712h99.419429c11.574857 0 19.712-8.137143 19.712-20.571429 0-11.574857-8.137143-19.712-19.712-19.712z" fill="#8a8a8a" p-id="53145"></path></svg>