<svg t="1691562548317" class="icon" viewBox="0 0 1024 1024" version="1.1" xmlns="http://www.w3.org/2000/svg" p-id="51027" width="48" height="48"><path d="M619.690667 275.626667h-385.706667c-16.384 0-29.696-13.312-29.696-29.696v-107.52c0-32.768 26.624-59.221333 59.221333-59.221334h326.314667c32.597333 0 59.221333 26.624 59.221333 59.221334v107.52c0.170667 16.384-13.141333 29.696-29.354666 29.696z m-356.010667-59.221334h326.314667V138.410667H263.68v77.994666zM563.712 932.352l-131.242667-137.045333c-4.096-4.266667-6.144-9.898667-5.802666-15.701334 0.341333-5.802667 3.242667-11.093333 7.68-14.848l39.082666-31.573333c5.461333-4.437333 12.629333-5.802667 19.285334-3.754667l85.674666 26.282667 16.725334-10.069333-101.888-108.544a20.923733 20.923733 0 0 1 3.413333-31.402667l41.813333-29.184c5.632-3.925333 12.970667-4.778667 19.456-2.218667l212.138667 84.138667c24.576-14.677333 92.672-55.466667 103.424-61.610667a77.824 77.824 0 0 1 94.72 12.8c14.677333 14.165333 22.528 34.133333 21.333333 54.442667a65.0752 65.0752 0 0 1-23.381333 46.250667c-14.506667 10.922667-316.416 189.952-376.832 225.792-3.242667 1.877333-6.826667 2.901333-10.581333 2.901333-5.632-0.170667-11.093333-2.389333-15.018667-6.656z" fill="#8a8a8a" p-id="51028"></path><path d="M760.149333 216.064H93.354667C60.586667 216.064 34.133333 242.688 34.133333 275.285333v478.208c0 32.768 26.453333 59.221333 59.221334 59.221334h332.458666l-11.434666-11.946667c-6.826667-7.168-10.410667-17.066667-9.898667-26.965333 0.682667-9.898667 5.461333-19.114667 13.141333-25.429334l39.253334-31.573333c9.216-7.509333 21.504-9.898667 32.938666-6.314667l69.12 21.162667-83.797333-89.258667c-7.168-7.68-10.581333-17.92-9.386667-28.16 1.024-10.24 6.656-19.626667 15.189334-25.429333l41.813333-29.013333c9.898667-6.826667 22.357333-8.362667 33.450667-3.925334l205.312 81.408c14.848-8.874667 37.888-22.698667 58.026666-34.645333V275.285333a59.392 59.392 0 0 0-59.392-59.221333z m-156.330666 183.808H249.856c-18.773333 0-34.133333-15.36-34.133333-34.133333s15.36-34.133333 34.133333-34.133334h353.962667c18.773333 0 34.133333 15.36 34.133333 34.133334s-15.36 34.133333-34.133333 34.133333z" fill="#8a8a8a" p-id="51029"></path></svg>