<svg t="1691560322999" class="icon" viewBox="0 0 1024 1024" version="1.1" xmlns="http://www.w3.org/2000/svg" p-id="28420" width="48" height="48"><path d="M117.318987 613.12c77.002667-6.24 147.626667-25.370667 231.125333-31.744 205.376-12.501333 243.626667 90.373333 442.624 64.997333 51.376-6.373333 166.88-25.370667 160.629333-96-38.378667-115.749333-44.629333-141.493333-108.629333-257.248-19.253333-32.122667-57.621333-90-76.746667-102.88-32.128-19.370667-77.125333 32-96.373333 57.632-6.378667 6.496-6.378667 12.874667 0 19.248 25.621333 38.624 83.248 141.498667 31.872 134.997334-19.253333 0-19.253333-19.370667-32-51.498667l-38.373333-77.248C599.441653 209.12 522.694987 61.248 445.82032 16.122667 387.942987-22.501333 336.57232 16 297.942987 54.506667 195.06832 176.373333 111.318987 349.626667 46.945653 490.874667c-32.250667 57.749333-13.125333 122 70.373334 122.250666z m833.877333 242.133333c-11.002667 0-21.498667 4.373333-29.125333 12.122667l-0.128-0.128 0.128-0.122667c-0.624 0.746667-62.752 70-145.002667 69.872-121.493333-0.122667-195.872-26.245333-267.872-51.626666-63.626667-22.373333-129.498667-45.493333-219.253333-45.621334-70.624-0.122667-132.997333 11.498667-185.370667 34.501334-40.373333 17.749333-60.128 36.122667-63.754667 39.626666l0.128 0.122667a41.12 41.12 0 0 0 1.626667 57.002667c15.749333 15.498667 40.874667 15.749333 56.997333 0.746666 4.373333-3.626667 18.250667-14 42.624-24.122666 28.250667-11.877333 76.746667-25.749333 147.376-25.626667 76 0.122667 129.749333 19.125333 192.122667 41.002667 74.752 26.245333 159.504 56 295.002667 56.373333 104.624 0.122667 181.376-71.125333 201.749333-92.250667a41.013333 41.013333 0 0 0 10.752-45.248 40.656 40.656 0 0 0-38-26.629333zM67.814987 815.744a40.794667 40.794667 0 0 0 30.752-13.872l-0.373334 0.373333c0.122667-0.128 14.122667-12.874667 44.373334-25.376 28.122667-11.749333 76.746667-25.749333 147.370666-25.626666 76 0.128 129.877333 19.125333 192.128 41.002666 74.874667 26.373333 159.498667 56.122667 294.997334 56.373334 120.250667 0.128 203.504-93.872 207.002666-98 13.872-17.498667 11.253333-42.746667-5.749333-57.12-17.125333-14.378667-42.506667-12.506667-57.253333 4.245333-9.12 9.498667-67.872 68.624-143.749334 68.501333-121.498667-0.250667-195.872-26.373333-267.872-51.626666-63.626667-22.373333-129.376-45.498667-219.376-45.626667-70.624-0.122667-132.874667 11.504-185.253333 34.506667-40.373333 17.744-60.122667 36.122667-63.749333 39.621333l0.128 0.122667c-13.125333 11.125333-17.877333 29.376-12 45.504a41.28 41.28 0 0 0 38.624 26.997333z" fill="#8a8a8a" p-id="28421"></path></svg>