<svg t="1691562050501" class="icon" viewBox="0 0 1024 1024" version="1.1" xmlns="http://www.w3.org/2000/svg" p-id="17880" width="48" height="48"><path d="M510.181376 35.113984c-261.419008 0-473.341952 211.924992-473.341952 473.344 0 261.421056 211.922944 473.341952 473.341952 473.341952s473.344-211.919872 473.344-473.341952C983.5264 247.04 771.600384 35.113984 510.181376 35.113984zM681.65632 297.003008c23.068672 0 41.76384 18.70336 41.76384 41.76896 0 23.063552-18.695168 41.766912-41.76384 41.766912-23.068672 0-41.76384-18.70336-41.76384-41.766912C639.89248 315.705344 658.587648 297.003008 681.65632 297.003008zM356.119552 297.003008c23.061504 0 41.76384 18.70336 41.76384 41.76896 0 23.063552-18.70336 41.766912-41.76384 41.766912-23.068672 0-41.772032-18.70336-41.772032-41.766912C314.348544 315.705344 333.05088 297.003008 356.119552 297.003008zM752.975872 685.5168c-58.36288 70.172672-144.160768 110.459904-235.380736 110.459904-95.839232 0-184.328192-43.621376-242.731008-119.61856-6.22592-8.114176-4.740096-19.72224 3.37408-25.94816 3.37408-2.6112 7.350272-3.856384 11.286528-3.856384 5.542912 0 11.045888 2.490368 14.660608 7.230464 51.37408 66.838528 129.137664 105.157632 213.408768 105.157632 80.17408 0 155.608064-35.387392 206.942208-97.124352 6.50752-7.79264 18.195456-8.916992 26.068992-2.369536C758.437888 665.955328 759.523328 677.643264 752.975872 685.5168z" fill="#8a8a8a" p-id="17881"></path></svg>