<svg t="1691560671767" class="icon" viewBox="0 0 1024 1024" version="1.1" xmlns="http://www.w3.org/2000/svg" p-id="39755" width="48" height="48"><path d="M517.526 288.665c-40.507 0-73.462-32.955-73.462-73.462 0-40.518 32.955-73.481 73.462-73.481s73.461 32.963 73.461 73.481c0 40.506-32.954 73.462-73.461 73.462z m0-139.944c-36.647 0-66.462 29.823-66.462 66.481 0 36.647 29.815 66.462 66.462 66.462 36.646 0 66.461-29.815 66.461-66.462 0-36.658-29.814-66.481-66.461-66.481z" p-id="39756" fill="#8a8a8a"></path><path d="M517.526 285.165c38.528 0 69.961-31.434 69.961-69.962 0-38.547-31.433-69.981-69.961-69.981-38.548 0-69.962 31.434-69.962 69.981 0 38.528 31.415 69.962 69.962 69.962z" fill="#8a8a8a" p-id="39757"></path><path d="M191.726 610.527h-24.729c-8.452 0-15.329-6.886-15.329-15.35V459.543c0-8.465 6.876-15.351 15.329-15.351h24.729c8.454 0 15.332 6.886 15.332 15.351v135.634c-0.001 8.465-6.879 15.35-15.332 15.35z m-24.729-159.335c-4.592 0-8.329 3.746-8.329 8.351v135.634c0 4.604 3.736 8.35 8.329 8.35h24.729c4.594 0 8.332-3.746 8.332-8.35V459.543c0-4.605-3.737-8.351-8.332-8.351h-24.729z" p-id="39758" fill="#8a8a8a"></path><path d="M166.997 447.692h24.729c6.51 0 11.832 5.341 11.832 11.851v135.634c0 6.509-5.321 11.85-11.832 11.85h-24.729c-6.488 0-11.829-5.341-11.829-11.85V459.543c0-6.51 5.34-11.851 11.829-11.851z" fill="#8a8a8a" p-id="39759"></path><path d="M868.58 610.527h-24.728c-8.453 0-15.331-6.886-15.331-15.35V459.543c0-8.465 6.878-15.351 15.331-15.351h24.728c8.455 0 15.333 6.886 15.333 15.351v135.634c0 8.465-6.878 15.35-15.333 15.35z m-24.727-159.335c-4.594 0-8.331 3.746-8.331 8.351v135.634c0 4.604 3.737 8.35 8.331 8.35h24.728c4.595 0 8.333-3.746 8.333-8.35V459.543c0-4.605-3.738-8.351-8.333-8.351h-24.728z" p-id="39760" fill="#8a8a8a"></path><path d="M868.58 447.692h-24.728c-6.509 0-11.831 5.341-11.831 11.851v135.634c0 6.509 5.322 11.85 11.831 11.85h24.728c6.51 0 11.833-5.341 11.833-11.85V459.543c0-6.51-5.323-11.851-11.833-11.851z" fill="#8a8a8a" p-id="39761"></path><path d="M447.781 847.498c-8.508 0-15.471-2.956-20.698-8.785-13.149-14.664-10.273-42.481-10.144-43.658 0.929-7.924 22.722-193.698 26.608-216.978 1.725-10.352 2.801-24.339 3.437-35.368h-38.691l-0.015 0.198c-0.88 11.492-22.623 21.578-35.299 21.578-1.521 0-2.918-0.145-4.151-0.428-7.996-1.853-16.093-10.467-20.298-21.349h-54.909v75.308c0 10.698-8.704 19.402-19.401 19.402h-33.247c-10.698 0-19.402-8.704-19.402-19.402V435.61c0-10.698 8.704-19.401 19.402-19.401h33.247c10.698 0 19.401 8.704 19.401 19.401v75.33h53.455c0.718-7.494 1.646-16.457 2.622-25.876 1.672-16.148 3.567-34.45 4.696-48.372 2.807-34.77 30.805-75.626 31.088-76.035 7.751-11.195 42.623-41.786 57.404-50.359 12.954-7.498 54.294-8.307 71.467-8.307 2.352 0 3.739 0.018 3.82 0.019 0.007-0.001 1.504-0.019 4.031-0.019 18.491 0 62.899 0.81 75.866 8.304 14.824 8.599 49.696 39.192 57.408 50.364 0.281 0.406 28.28 41.253 31.086 76.034 1.115 13.74 2.9 31.02 4.626 47.729 0.998 9.662 1.947 18.855 2.676 26.517h48.09v-75.33c0-10.698 8.705-19.401 19.404-19.401h33.246c10.71 0 19.423 8.704 19.423 19.401v182.407c0 10.698-8.713 19.402-19.423 19.402H761.36c-10.699 0-19.404-8.704-19.404-19.402v-75.308h-49.547c-4.202 10.879-12.29 19.492-20.271 21.347-1.239 0.285-2.636 0.43-4.157 0.43-12.677 0.001-34.421-10.084-35.301-21.58l-0.016-0.196h-38.706c0.878 14.994 2.038 26.881 3.454 35.368 3.885 23.279 25.679 209.054 26.605 216.951 0.131 1.204 3.002 29.019-10.146 43.683-5.227 5.83-12.191 8.786-20.699 8.787-0.56 0-1.13-0.014-1.71-0.04-38.03-1.724-41.733-24.031-43.947-37.359-0.688-4.116-3.04-24.571-6.295-52.881-5.7-49.585-15.432-134.223-20.737-167.187-5.338 33.091-15.13 118.275-20.865 168.163-3.192 27.77-5.499 47.833-6.173 51.903-2.211 13.329-5.913 35.636-43.947 37.36-0.579 0.026-1.152 0.039-1.71 0.04l-0.007 0.001z m-42.7-311.789h45.601a3.503 3.503 0 0 1 3.496 3.683c-0.608 11.623-1.748 27.97-3.726 39.837-3.858 23.112-26.331 214.683-26.557 216.614-0.024 0.229-2.655 25.884 8.41 38.208 3.895 4.338 8.958 6.447 15.477 6.447h0.005c0.455-0.001 0.923-0.011 1.395-0.032 32.373-1.468 35.254-18.834 37.358-31.514 0.646-3.897 3.064-24.93 6.125-51.557 3.894-33.87 9.226-80.257 13.899-117.317 2.548-20.205 4.688-35.941 6.36-46.772 0.947-6.136 1.772-10.882 2.453-14.106 0.972-4.603 1.711-7.447 4.537-7.917 0.381-0.064 0.77-0.064 1.15 0 2.963 0.494 3.65 3.749 4.521 7.87 0.676 3.197 1.494 7.903 2.434 13.987 1.659 10.744 3.782 26.361 6.312 46.417 4.642 36.807 9.961 83.076 13.845 116.861 3.121 27.146 5.586 48.586 6.246 52.53 2.106 12.684 4.989 30.05 37.358 31.518 7.245 0.331 12.712-1.777 16.881-6.428 11.085-12.363 8.431-37.965 8.402-38.222-0.224-1.905-22.697-193.476-26.554-216.587-1.573-9.428-2.834-22.83-3.747-39.833a3.5 3.5 0 0 1 3.495-3.688h45.603a3.499 3.499 0 0 1 3.485 3.185l0.145 1.561c0.072 0.783 0.132 1.425 0.171 1.907 0.466 6.085 17.404 15.125 28.32 15.124 0.994 0 1.862-0.084 2.581-0.25 6.085-1.413 12.986-9.626 16.045-19.102a3.502 3.502 0 0 1 3.331-2.425h55.519a3.5 3.5 0 0 1 3.5 3.5v78.808c0 6.839 5.564 12.402 12.404 12.402h33.246c6.85 0 12.423-5.563 12.423-12.402V435.61c0-6.838-5.573-12.401-12.423-12.401h-33.246c-6.84 0-12.404 5.563-12.404 12.401v78.83a3.5 3.5 0 0 1-3.5 3.5H690.68a3.5 3.5 0 0 1-3.485-3.18c-0.753-8.191-1.828-18.599-2.966-29.618-1.729-16.748-3.519-34.065-4.64-47.884-2.205-27.328-22.308-61.687-29.868-72.62-6.461-9.359-40.517-39.793-55.157-48.285-9.39-5.428-43.535-7.362-72.358-7.362-2.541 0-4.02 0.018-4.031 0.018-0.103 0-1.467-0.018-3.82-0.018-26.702 0-58.577 1.935-67.957 7.364-14.6 8.468-48.664 38.909-55.157 48.286-7.559 10.934-27.662 45.298-29.867 72.616-1.136 14.001-3.035 32.345-4.711 48.529-1.116 10.771-2.169 20.945-2.914 28.978a3.5 3.5 0 0 1-3.485 3.177h-60.14a3.5 3.5 0 0 1-3.5-3.5v-78.83c0-6.838-5.563-12.401-12.401-12.401h-33.247c-6.838 0-12.402 5.563-12.402 12.401v182.407c0 6.839 5.563 12.402 12.402 12.402h33.247c6.838 0 12.401-5.563 12.401-12.402V539.21a3.5 3.5 0 0 1 3.5-3.5h60.88a3.5 3.5 0 0 1 3.331 2.425c3.06 9.477 9.969 17.689 16.071 19.103 0.714 0.165 1.582 0.249 2.575 0.249 10.916 0 27.855-9.04 28.32-15.114 0.06-0.772 0.159-1.958 0.298-3.479a3.495 3.495 0 0 1 3.482-3.185z m228.049-17.77h-43.829a3.5 3.5 0 0 1-3.499-3.432c-0.021-1.038-0.021-1.608-0.021-1.608l2.34-126.073a3.5 3.5 0 0 1 5.983-2.401c0.007 0.007 2.354 2.372 13.28 13.301 11.072 11.092 15.309 27.173 18.401 38.915l0.474 1.795c2.106 7.879 6.891 45.651 10.347 75.602a3.498 3.498 0 0 1-3.476 3.901z m-40.312-7H629.2c-3.613-30.984-7.899-63.949-9.704-70.702l-0.479-1.813c-3.051-11.583-6.848-25.998-16.584-35.751-3.152-3.152-5.591-5.593-7.466-7.471l-2.149 115.737z m-141.161 7h-43.848a3.502 3.502 0 0 1-3.477-3.903c1.262-10.872 7.692-65.612 10.367-75.607l0.45-1.704c3.099-11.766 7.344-27.88 18.417-38.995a6547.478 6547.478 0 0 0 13.287-13.305 3.501 3.501 0 0 1 5.984 2.4l2.358 126.008c0.001 0.059 0 0.119-0.001 0.178 0 0.01-0.017 0.542-0.039 1.504a3.498 3.498 0 0 1-3.498 3.424z m-39.916-7h36.418L445.993 395.2c-1.876 1.878-4.317 4.321-7.472 7.476-9.739 9.775-13.544 24.223-16.603 35.833l-0.455 1.722c-1.893 7.075-6.314 41.634-9.722 70.708z" p-id="39762" fill="#8a8a8a"></path><path d="M611.204 323.866c16.118 12.708 36.211 31.26 41.394 38.781 7.035 10.174 28.142 45.369 30.478 74.327 1.872 23.075 5.729 57.081 7.603 77.465h54.777v-78.83c0-8.73 7.174-15.901 15.904-15.901h33.246c8.77 0 15.923 7.171 15.923 15.901v182.407c0 8.75-7.153 15.902-15.923 15.902H761.36c-8.73 0-15.904-7.152-15.904-15.902v-78.808h-55.519c-3.41 10.563-11.206 19.722-18.591 21.438-10.155 2.338-34.397-7.836-35.176-18.008-0.061-0.761-0.176-1.93-0.312-3.43h-24.654v-24.77h21.926c-3.236-28.043-8.148-67.233-10.253-75.105-2.437-9.141-5.338-21.146-11.673-31.182v-84.285z m0 392.685c5.107 42.833 9.337 78.885 9.337 78.885s2.979 27.362-9.337 41.004V716.551zM429.753 323.886c5.75-4.521 10.991-8.301 14.888-10.561 14.851-8.596 73.488-7.816 73.488-7.816s63.318-0.78 78.188 7.816c3.896 2.26 9.138 6.041 14.887 10.542v84.286c-1.812-2.845-3.879-5.516-6.295-7.951-10.949-10.952-13.289-13.31-13.289-13.31L589.281 512.9s0 0.545 0.02 1.54h21.903v24.77h-20.948c0.7 13.037 1.851 28.335 3.704 39.444 2.22 13.329 10.502 81.497 17.244 137.897V836.44c-4.364 4.833-10.62 7.931-19.584 7.522-34.397-1.56-38.313-20.345-40.652-34.437-2.357-14.09-25.802-234.01-30.48-234.791-4.695 0.781-28.161 220.701-30.497 234.791-2.338 14.092-6.255 32.877-40.652 34.437-8.965 0.408-15.241-2.71-19.585-7.522V716.646c6.743-56.417 15.026-124.664 17.246-137.993 1.851-11.109 3-26.407 3.683-39.444h-20.929v-24.77h21.904c0.022-0.994 0.04-1.54 0.04-1.54l-2.358-126.008s-2.339 2.357-13.292 13.31c-2.416 2.435-4.5 5.126-6.293 7.971v-84.286z m-188.78 95.822h33.247c8.75 0 15.901 7.171 15.901 15.901v78.83h60.14c1.89-20.385 5.75-54.391 7.621-77.465 2.337-28.958 23.445-64.153 30.478-74.327 5.203-7.521 25.256-26.073 41.393-38.761v84.286c-6.335 10.037-9.238 22.021-11.672 31.162-2.107 7.873-7.017 47.063-10.271 75.105h21.944v24.77h-24.672c-0.137 1.5-0.235 2.669-0.293 3.43-0.779 10.172-25.021 20.346-35.175 18.008-7.406-1.716-15.201-10.875-18.612-21.438h-60.88v78.808c0 8.75-7.151 15.902-15.901 15.902h-33.247c-8.75 0-15.902-7.152-15.902-15.902V435.61c-0.001-8.73 7.151-15.902 15.901-15.902z m188.78 416.731c-12.318-13.642-9.335-41.004-9.335-41.004s4.23-35.975 9.335-78.789v119.793z" fill="#8a8a8a" p-id="39763"></path></svg>