<svg t="1691561126200" class="icon" viewBox="0 0 1045 1024" version="1.1" xmlns="http://www.w3.org/2000/svg" p-id="15091" width="48" height="48"><path d="M979.65019531 362.23261719a35.16328125 35.16328125 0 0 0-19.24013672-33.83613282l-124.73085937-66.34599609a35.82685547 35.82685547 0 0 0-47.76855469 13.93242188L551.71777344 686.66416016a35.82685547 35.82685547 0 0 1-61.70185547 0L253.82568359 280.62792969a35.82685547 35.82685547 0 0 0-47.76855468-13.93242188L81.32539062 328.39648437A35.16328125 35.16328125 0 0 0 62.08525391 362.23261719v563.27695312a35.82685547 35.82685547 0 0 0 35.82685546 35.16328125h845.91123047a35.82685547 35.82685547 0 0 0 35.82685547-35.16328125V362.23261719zM866.86191406 688.65488281H734.16992188a46.44140625 46.44140625 0 0 1-47.10585938-37.1540039 43.78798828 43.78798828 0 0 1 43.78886719-49.75927735H863.54492188a46.44140625 46.44140625 0 0 1 47.10498046 37.15400391 43.78798828 43.78798828 0 0 1-43.78710937 49.75927734z" p-id="15092" fill="#8a8a8a"></path><path d="M340.07539063 285.93476563a358.93125 358.93125 0 0 0 125.39355468-53.07714844 7.2984375 7.2984375 0 0 1 0 5.30859375h104.82714844a7.2984375 7.2984375 0 0 1 3.98056641-6.63574219 354.95068359 354.95068359 0 0 0 126.72070312 54.40429688 32.50986328 32.50986328 0 0 0 39.80742188-24.54785157 563.94052734 563.94052734 0 0 0 9.95185547-84.25986328 37.15400391 37.15400391 0 0 0 0-3.9805664 563.94052734 563.94052734 0 0 0-9.95185547-84.25898438 32.50986328 32.50986328 0 0 0-39.80742188-25.875 354.95068359 354.95068359 0 0 0-126.72070312 55.06699219 7.2984375 7.2984375 0 0 1-3.98144532-6.63486328h-102.17285156a7.2984375 7.2984375 0 0 1 0 5.30859375 358.26855469 358.26855469 0 0 0-128.04785156-53.74072266 32.50986328 32.50986328 0 0 0-39.80654297 24.54785156 564.60410156 564.60410156 0 0 0-9.95185547 84.25986328 30.51914063 30.51914063 0 0 0 0 3.98056641 563.94052734 563.94052734 0 0 0 9.95185547 86.24970703 32.50986328 32.50986328 0 0 0 39.80742188 24.54785156z" p-id="15093" fill="#8a8a8a"></path></svg>