<svg t="1691562283040" class="icon" viewBox="0 0 1024 1024" version="1.1" xmlns="http://www.w3.org/2000/svg" p-id="42045" width="48" height="48"><path d="M406.303227 718.265002l23.256944 290.810785 172.419638-15.952985 5.040189-363.566142z" fill="#FFFFFF" p-id="42046"></path><path d="M608.243247 998.914198l5.258445-379.158751-213.883187 94.527654 24.129968 301.70074 184.494774-17.069643z m-7.704942-359.558862l-4.827009 347.973533-160.341964 14.836327-22.383921-279.918292 187.552894-82.891568z" fill="#333333" p-id="42047"></path><path d="M289.561689 1017.681669s41.128551-34.311861 68.166906-54.74163 63.12418-35.116362 63.12418-35.116362 35.055454 34.771213 103.336564 31.558283 79.967954-58.756524 79.967954-58.756524 50.52117 1.147113 79.620267 14.343982C741.173791 941.13475 797.311243 1017.681669 797.311243 1017.681669h-507.749554z" fill="#707070" p-id="42048"></path><path d="M597.947151 899.315901l1.086203-5.154393 6.458853 0.154809 3.24846 0.134507c0.992303 0.048219 2.017598 0.101514 3.07081 0.162423l3.24846 0.203029c1.667374 0.109128 3.395656 0.236021 5.177234 0.380679 11.902561 0.961849 23.812736 2.476951 34.974242 4.674737 12.125893 2.388126 22.65801 5.451322 31.197907 9.324096 21.292641 9.704775 43.552207 26.447034 66.098551 48.244709 12.775585 12.351762 24.853258 25.566397 35.867569 38.778494 1.286695 1.543019 2.527708 3.045431 3.720502 4.512314l2.324679 2.875395 2.195249 2.761191 1.050674 1.334914 2.215551 2.85763 2.545473 3.370277a6.344649 6.344649 0 0 1-10.232649 7.501913l-1.350142-1.80188-1.591238-2.075969-1.581086-2.032826-2.070894-2.624146-2.200324-2.740889-1.147112-1.416125-2.385588-2.905849-1.238476-1.489724c-10.742759-12.887251-22.520965-25.771963-34.94125-37.781115-21.597185-20.881508-42.788312-36.816728-62.532858-45.815978-7.509526-3.405807-17.153393-6.210142-28.39611-8.425693-10.636169-2.093734-22.086991-3.553003-33.54289-4.476785l-1.700366-0.134506-3.294141-0.236021-1.586162-0.101514-3.045432-0.175113-0.72329-0.03553-0.147196 0.433974a80.044089 80.044089 0 0 1-1.456731 3.844857l-0.345149 0.837494a85.634994 85.634994 0 0 1-13.323762 21.868736c-15.468254 18.480693-38.197324 30.116779-69.105915 31.570972-32.121688 1.512564-59.723448-4.821933-82.663161-16.343815-7.263354-3.646904-13.526791-7.567897-18.795387-11.509193l-0.786737-0.593859-1.441504-1.121734-0.659843-0.527875-0.487269-0.395906-2.611458 1.152188-2.512481 1.136961-2.626684 1.213097-2.738351 1.291771c-10.620942 5.06303-21.241884 10.714843-31.119233 16.80063-5.984273 3.682434-11.514269 7.418163-16.493549 11.181809l-3.725578 2.832251-3.953985 3.045431-2.758654 2.141954-4.319437 3.380429-6.075635 4.799092-4.58845 3.654518-3.583458 2.870319-7.283657 5.867531c-2.446497 1.97953-4.910758 3.984439-7.385171 5.996962l-7.430853 6.073098-9.879887 8.131302-6.941046 5.758403a6.344649 6.344649 0 1 1-8.128764-9.74538l9.379929-7.770926 3.796638-3.126643c3.725578-3.063196 7.468921-6.126393 11.194498-9.161673l7.420702-6.024879 3.67482-2.966757 7.245589-5.814237 6.18984-4.923447 6.045181-4.763562 2.885546-2.256158 4.151938-3.218005 2.64445-2.030288 3.776335-2.875395c5.319354-4.017432 11.179271-7.976492 17.48839-11.861955 10.30371-6.344649 21.310406-12.207104 32.314565-17.450322l2.834789-1.334914 2.723124-1.258779 2.606381-1.177567 2.476951-1.096355 4.111333-1.751123 3.885463-1.581086 3.05812 3.032742 0.855259 0.776585 0.258862 0.228407c1.131885 0.984689 2.504867 2.096272 4.118946 3.304293 4.679813 3.504784 10.311323 7.029871 16.886917 10.329088 21.049007 10.572723 46.498662 16.414875 76.369269 15.008902 27.302293-1.284157 46.747372-11.237642 59.974696-27.040894a73.034521 73.034521 0 0 0 11.349308-18.627889c0.768971-1.83741 1.398361-3.555541 1.900857-5.1214l0.395906-1.294308 0.253786-0.91363 0.180188-0.728366z" fill="#333333" p-id="42049"></path><path d="M266.076336 605.685554s-55.563896-25.936924-67.821757 8.26327c-12.257861 34.197657 13.633381 91.350254 59.114361 90.890901l8.707396-99.154171z" fill="#FFFFFF" p-id="42050"></path><path d="M192.280457 611.806871c5.900523-16.452943 20.231816-22.939712 39.098264-21.749456 7.778539 0.489807 15.968212 2.248544 24.195953 4.87269a134.379662 134.379662 0 0 1 7.973954 2.8221l2.025212 0.809577 1.022758 0.423823 1.598851 0.692835 0.565943 0.258862a6.344649 6.344649 0 0 1-4.969129 11.66654l-1.69529-0.741055-1.190256-0.499958a120.832568 120.832568 0 0 0-9.187052-3.342361c-7.314111-2.334831-14.529246-3.882925-21.14037-4.301672-13.816107-0.870486-22.688464 3.146946-26.350595 13.369444-5.377724 14.99875-2.469337 35.898023 7.43339 53.142778 10.557496 18.384254 26.94953 29.45186 45.643404 29.264059a6.344649 6.344649 0 1 1 0.126893 12.689297c-23.685843 0.238559-44.085158-13.536943-56.774455-35.634085-11.653851-20.292725-15.092651-45.003863-8.374937-63.743418z" fill="#333333" p-id="42051"></path><path d="M287.044132 630.016013S26.862774 873.424658 368.494195 889.951199c363.857996 17.55945 384.249697-184.766325 384.249697-184.766325l-44.107998-277.380432-361.22116-33.509897-60.375678 235.721468z" fill="#FFFFFF" p-id="42052"></path><path d="M714.13036 421.941986l-371.517256-34.464132-61.266467 239.200874-1.51764 1.477034-1.3273 1.309536-2.248544 2.248543-1.167415 1.177567-2.400815 2.461724c-0.817191 0.845107-1.649609 1.710517-2.497254 2.601306l-2.588617 2.733274c-11.255407 11.996462-22.510814 25.160339-33.027704 39.100802-20.379012 27.010439-35.499579 53.61482-43.174066 78.785311-10.983856 36.022378-6.012189 67.227899 18.407095 90.964499 21.919493 21.307869 58.852962 35.745751 112.26983 42.750244l4.085954 0.517723 2.070893 0.24871 4.182393 0.47458 2.116574 0.228407 4.278832 0.431436c2.875395 0.276627 5.791395 0.535488 8.750539 0.774048l4.471709 0.345148 2.258695 0.162423 4.568147 0.302006c1.535405 0.096439 3.080961 0.185264 4.634131 0.271551l4.697578 0.243634 3.146946 0.147196 6.253286 0.2614c85.102043 3.28399 155.672303-5.354884 212.977171-24.277165 50.092271-16.546844 88.693115-40.478859 117.139982-69.902802 20.259733-20.955106 34.21796-43.453231 42.993878-65.991961 3.088575-7.928273 5.309202-15.310907 6.801464-21.965175l0.342611-1.568397 0.296929-1.44658 0.253786-1.329838 0.213181-1.202946 0.172574-1.073514 0.137044-0.946622 0.101515-0.814653 0.121817-1.175029-45.011476-283.060162z m-361.911458-20.833288l350.927602 32.558199 43.191831 271.627105-0.147196 0.98469c-0.083749 0.522799-0.17765 1.076052-0.28424 1.65976l-0.355301 1.834872a104.661327 104.661327 0 0 1-0.431436 2.004909c-1.355217 6.050257-3.393118 12.823804-6.243134 20.142991-8.184597 21.02109-21.252036 42.077711-40.293596 61.776577-27.002825 27.929144-63.829705 50.764804-111.995741 66.66957-56.47245 18.653267-126.560517 27.084037-211.609265 23.525957l-6.174612-0.279164-2.273922-0.114204-4.497087-0.24871a638.855378 638.855378 0 0 1-2.225703-0.131969l-4.400648-0.289316-4.334664-0.317232-4.273756-0.342611c-2.119113-0.17765-4.212847-0.36799-6.286278-0.565943l-4.111332-0.408595-4.050424-0.436512-1.999833-0.228408-3.953985-0.477117c-2.613995-0.327384-5.184847-0.672533-7.715093-1.032909l-3.763646-0.555791c-20.526208-3.126643-38.197324-7.438466-53.125013-12.856797l-2.685056-0.997378c-17.247293-6.560367-30.67257-14.658677-40.458556-24.170574-20.632798-20.059242-24.820266-46.331163-15.115492-78.166074 7.171991-23.52342 21.607336-48.914704 41.16662-74.841477 10.222498-13.55217 21.191127-26.378512 32.15468-38.060279l2.512481-2.659677 2.428731-2.52517 1.177567-1.213097 2.284074-2.319604 2.177483-2.177483 1.860251-1.827259 2.081045-2.002371 1.352679-1.263854 59.489965-232.275055z" fill="#333333" p-id="42053"></path><path d="M235.830127 639.195451c-20.389163-23.066605 2.75104-66.677183 2.751039-66.677183s-41.014348-30.984727-36.887788-56.807448c4.121484-25.820183 29.898523-23.066605 29.898523-23.066605S196.305502 472.219521 201.695916 441.003849c5.3828-31.215672 28.525541-28.576298 28.525541-28.576298s-28.525541-20.427231-19.018719-39.476405c9.50936-19.051711 38.034901-16.298134 38.034901-16.298134s-13.519178-53.020961 8.133839-67.938499c21.767221-14.920076 42.044719 6.771009 42.044719 6.771009s-8.13384-49.006067 20.394239-61.16749c28.525541-12.28324 52.92706 13.539481 52.927061 13.53948s-8.13384-39.476405 27.152559-42.115778c35.286399-2.756115 52.929598 28.576298 52.929598 28.576298s6.75832-27.200778 35.283861-20.429769c28.525541 6.771009 39.412958 43.496374 39.412958 43.496374s17.640662-19.051711 46.168741-17.673654c28.525541 1.37552 39.407883 27.198241 39.407882 27.198241s21.767221-24.444663 51.554079-5.392952c29.786857 19.049174 17.643199 44.869356 17.643199 44.869357s32.535359-13.539481 47.54426 5.395489c14.894698 19.051711 8.13384 54.396481 8.13384 54.396481s47.54426-6.768471 54.305118 23.069143c6.75832 29.951818-21.767221 46.247414-21.767221 46.247414s33.908341 8.146529 43.417701 31.215672-5.3828 43.493837-5.3828 43.493837 25.777039 10.902645 23.025999 35.347307c-2.748502 24.444663-31.162377 50.267384-31.162377 50.267384s28.528079 17.673654 28.528079 43.493836c0 25.822721-31.162377 49.006067-31.162377 49.006068s16.26768 36.722827-13.51664 46.247414c-29.901061 9.524587-38.953606-16.640745-39.524624-33.28149-0.573556-16.640745 13.059825-23.183347 13.059825-23.183347s-17.414792 5.854842-16.612828-7.918121c0.68776-13.770426 17.412254-26.051128 17.412254-26.051128s-18.785236 0.690298-22.452443-15.262687c-3.667207-15.952985-4.461557-20.092234-4.461558-20.092234s-12.265475-4.580836-17.993424-22.713843c-5.84469-18.133006 8.707396-34.773751 8.707396-34.773751s-21.653017 0-31.048173-17.328505c-9.392618-17.442709 2.865243-35.461511 2.865243-35.461511s-11.572639 17.328505-32.535359 16.640745c-20.965258-0.68776-39.067809-17.328505-39.067809-17.328505s-6.529913 16.640745-20.965258 16.640745c-14.435345 0-16.612828-15.952985-16.612828-15.952985s-6.529913 15.262687-18.787774 20.313027c-12.257861 5.05034-30.357876-7.918122-30.357876-7.918121s-7.90797 31.101468-36.205104 35.461511c-28.180392 4.360043-41.240217-26.051128-41.240217-26.051128s-30.362951 15.262687-52.127635 2.180021c-21.653017-13.082666-9.395156-36.951235-9.395156-36.951234s-7.217672 12.278164-25.320224 11.587866c-18.100014-0.685222-23.827963-13.082666-23.827963-13.082666s5.040189 24.675608-10.082916 38.446034c3.096189 15.72204 13.521716 29.149854-11.110749 41.658964-13.062363 6.656806-10.884879 23.871107-16.612828 41.316353-6.298967 17.442709-5.151855 28.576298-12.143658 39.133794-6.301505 9.524587-41.585366 17.787857-61.979605-5.395489z" fill="#333333" p-id="42054"></path><path d="M365.174675 646.080664s21.995628 1.378058 37.00453 12.854258" fill="#FFFCEE" p-id="42055"></path><path d="M365.154372 639.736015l0.416209 0.012689 0.852721 0.063447 0.992303 0.093901 1.12681 0.126893 1.251164 0.162423 0.672533 0.0939 1.428815 0.218256 1.537943 0.2614 0.807039 0.144658c6.370027 1.169953 12.745131 2.961682 18.759858 5.52492 4.806706 2.048053 9.187051 4.514852 13.034446 7.456231a6.344649 6.344649 0 1 1-7.707479 10.080378c-2.954068-2.258695-6.420785-4.210309-10.301172-5.862455-5.070643-2.162256-10.570185-3.705275-16.079878-4.720419a79.879128 79.879128 0 0 0-5.314277-0.799426l-1.522716-0.152271-0.329922-0.025379a6.344649 6.344649 0 0 1 0.375603-12.679146z" fill="#333333" p-id="42056"></path><path d="M512.847645 669.837567s24.975076-12.50911 55.909045-10.785903" fill="#FFFCEE" p-id="42057"></path><path d="M525.450655 658.295382c13.790729-4.205233 28.571223-6.420785 43.65626-5.580753a6.344649 6.344649 0 0 1-0.702987 12.671532c-13.458269-0.751206-26.794721 1.248627-39.255611 5.045265-3.730653 1.136961-7.093317 2.352596-10.024545 3.560617l-1.152189 0.482193-1.916083 0.862872-0.365452 0.172575a6.344649 6.344649 0 0 1-5.684806-11.344232l0.565943-0.276627 1.12681-0.517723 1.44658-0.634465 1.142036-0.47458a124.862689 124.862689 0 0 1 11.161507-3.969212zM368.136357 590.468548a6.344649 6.344649 0 0 1 7.123772-4.948826l0.411133 0.076136 24.058908 5.164544a6.344649 6.344649 0 0 1-2.251081 12.481193l-0.411133-0.076136-24.058909-5.162006a6.344649 6.344649 0 0 1-4.87269-7.537443zM517.466549 585.900401a6.344649 6.344649 0 0 1 8.600806-0.885713l0.352763 0.286778 20.734312 18.133006a6.344649 6.344649 0 0 1-8.001871 9.839282l-0.350225-0.286778-20.734312-18.133007a6.344649 6.344649 0 0 1-0.601473-8.953568z" fill="#333333" p-id="42058"></path><path d="M730.291449 722.399175c45.480981 0.456815 71.374761-56.693244 59.1169-90.893438-12.260399-34.197657-67.824296-8.260733-67.824296-8.260733l8.704858 99.154171z" fill="#FFFFFF" p-id="42059"></path><path d="M756.284206 607.614327c18.866448-1.187718 33.195203 5.299051 39.095726 21.749456 6.717714 18.742093 3.276377 43.450693-8.374936 63.745956-12.689298 22.097143-33.093688 35.872644-56.776993 35.631547a6.344649 6.344649 0 1 1 0.126893-12.689297c18.693873 0.190339 35.088446-10.877266 45.645941-29.261521 9.90019-17.244755 12.811115-38.144029 7.435928-53.142778-3.667207-10.225036-12.537026-14.237392-26.355671-13.369444-6.611124 0.416209-13.826259 1.969379-21.14037 4.301672-3.07081 0.977076-5.943667 2.02775-8.532283 3.073348l-1.26893 0.522799-1.786653 0.779123a6.344649 6.344649 0 1 1-5.451323-11.458436l0.906016-0.411133 1.256241-0.540564 1.5887-0.654768a133.450805 133.450805 0 0 1 9.435762-3.400732c8.225203-2.624147 16.414875-4.385421 24.195952-4.87269zM310.224941 758.347956c7.852137-2.832251 17.341194-2.512481 27.629676 2.834789 2.634298 1.367906 5.344732 3.200241 8.146529 5.456398 4.111332 3.311907 8.380012 7.494299 12.747669 12.359375a204.559091 204.559091 0 0 1 10.813819 13.184181l1.367907 1.827259 2.065817 2.842402 0.964387 1.37552a6.344649 6.344649 0 0 1-10.209809 7.522216l-1.309536-1.839948-1.11412-1.537943-1.230862-1.662298a192.115966 192.115966 0 0 0-10.793516-13.2324c-3.943834-4.398111-7.743009-8.123688-11.257945-10.953402-2.192711-1.763812-4.222998-3.136794-6.040106-4.083416-7.004492-3.636753-12.821266-3.832168-17.473163-2.15718l-0.601472 0.230945-0.456815 0.197953-0.408595 0.203029-0.058371 0.032992a6.344649 6.344649 0 0 1-7.01972-10.570185c0.911092-0.604011 2.334831-1.342528 4.238226-2.030287zM365.088388 712.750234c3.974288-6.557829 11.247793-9.146446 19.947576-5.055417 5.816774 2.707896 9.49667 7.456231 11.288399 13.361831 1.296846 4.273755 1.497337 8.613495 1.086204 12.580169l-0.088825 0.756283-0.124355 0.827342a6.344649 6.344649 0 0 1-12.552254-1.819646l0.11928-0.862872 0.025378-0.203029c0.24871-2.436345 0.124355-5.184847-0.609086-7.593275-0.807039-2.664752-2.213014-4.479322-4.519928-5.552837l-0.413671-0.190339-0.7106-0.307081c-1.395823-0.558329-1.857713-0.436512-2.357672 0.269013l-0.236021 0.365452a6.852221 6.852221 0 0 0-0.710601 1.654684l-0.03553 0.157347a6.344649 6.344649 0 0 1-12.481193-2.296763 18.323346 18.323346 0 0 1 2.372899-6.090862zM406.681368 727.675385c4.898069-6.466466 11.532034-10.392535 19.828296-9.8875 8.31149 0.507572 13.646071 4.761024 15.227157 11.232566 0.675071 2.761191 0.583708 5.491928 0.055833 8.083082-0.065984 0.317232-0.131969 0.609086-0.197953 0.875562l-0.195415 0.710601-0.091363 0.286778a6.344649 6.344649 0 0 1-12.158885-3.603761l0.152272-0.543102 0.055832-0.258861c0.185264-0.913629 0.218256-1.860251 0.050758-2.53786-0.228407-0.951697-0.796888-1.403436-3.672283-1.578548-3.479405-0.21318-6.377641 1.502413-8.938341 4.885379a23.305164 23.305164 0 0 0-2.416043 4.002205l-0.291853 0.626851-0.294392 0.702987-0.10659 0.281702a6.344649 6.344649 0 0 1-12.021841-4.060575c0.827342-2.443959 2.431269-5.804085 5.014811-9.217506zM646.389813 907.216257a6.344649 6.344649 0 0 1 12.455815 2.423656l-0.134507 0.639541-0.187801 0.807039-0.388293 1.512564-0.33246 1.200408a100.9459 100.9459 0 0 1-3.550465 10.227574 117.244034 117.244034 0 0 1-18.369027 30.725865c-25.642533 30.961886-65.738175 48.006151-122.68013 44.009022a178.596788 178.596788 0 0 1-12.14112-1.284157c-22.625018-3.154559-46.656009-10.524503-70.999158-20.820599a411.742329 411.742329 0 0 1-32.2968-15.354051l-2.527708-1.352679-2.385588-1.301922-2.24093-1.243551-2.646987-1.499875-2.824638-1.657222a6.344649 6.344649 0 1 1 6.583208-10.846812l0.761357 0.451739 2.332293 1.35268 2.004909 1.134423 2.152105 1.195332 2.296763 1.251164 2.436345 1.30446a399.141857 399.141857 0 0 0 31.299422 14.87947c23.404141 9.897652 46.419989 16.955439 67.806531 19.939963 3.837244 0.535488 7.600889 0.93647 11.280785 1.192794 52.871227 3.712888 88.992582-11.643699 112.018582-39.443413a104.641024 104.641024 0 0 0 16.381883-27.403807 88.317511 88.317511 0 0 0 3.10634-8.933266l0.380679-1.388209 0.258861-1.040522 0.149734-0.677609z" fill="#333333" p-id="42060"></path></svg>