<?xml version="1.0" encoding="utf-8"?>
<svg version="1.1" xmlns:xlink="http://www.w3.org/1999/xlink" width="55px" height="86px" xmlns="http://www.w3.org/2000/svg">
  <defs>
    <pattern id="BGPattern" patternUnits="userSpaceOnUse" alignment="0 0" imageRepeat="None" />
    <mask fill="white" id="Clip154">
      <path d="M 0 54.088050314465406  C 0 23.79874213836478  23.950000000000042 0  54.750000000000036 0  C 54.98809523809523 51.98540662691606  54.51190476190476 2.8144517955838544  55 54.088050314465406  C 15.226190476190464 81.95627433363282  52.60714285714286 56.20005989817308  10.088105737149453 85.66286746022945  C 9.934743204397392 85.4566291886219  10.238521713984653 85.8713902471349  10.088105737149453 85.66286746022945  C 3.7156592202083742 76.82869747990809  0 65.9566534745108  0 54.088050314465406  Z " fill-rule="evenodd" />
    </mask>
  </defs>
  <g transform="matrix(1 0 0 1 -974 -1620 )">
    <path d="M 0 54.088050314465406  C 0 23.79874213836478  23.950000000000042 0  54.750000000000036 0  C 54.98809523809523 51.98540662691606  54.51190476190476 2.8144517955838544  55 54.088050314465406  C 15.226190476190464 81.95627433363282  52.60714285714286 56.20005989817308  10.088105737149453 85.66286746022945  C 9.934743204397392 85.4566291886219  10.238521713984653 85.8713902471349  10.088105737149453 85.66286746022945  C 3.7156592202083742 76.82869747990809  0 65.9566534745108  0 54.088050314465406  Z " fill-rule="nonzero" fill="rgba(255, 255, 128, 1)" stroke="none" transform="matrix(1 0 0 1 974 1620 )" class="fill" />
    <path d="M 0 54.088050314465406  C 0 23.79874213836478  23.950000000000042 0  54.750000000000036 0  C 54.98809523809523 51.98540662691606  54.51190476190476 2.8144517955838544  55 54.088050314465406  C 15.226190476190464 81.95627433363282  52.60714285714286 56.20005989817308  10.088105737149453 85.66286746022945  C 9.934743204397392 85.4566291886219  10.238521713984653 85.8713902471349  10.088105737149453 85.66286746022945  C 3.7156592202083742 76.82869747990809  0 65.9566534745108  0 54.088050314465406  Z " stroke-width="0" stroke-dasharray="0" stroke="rgba(215, 215, 215, 1)" fill="none" transform="matrix(1 0 0 1 974 1620 )" class="stroke" mask="url(#Clip154)" />
  </g>
</svg>