<?xml version="1.0" encoding="utf-8"?>
<svg version="1.1" xmlns:xlink="http://www.w3.org/1999/xlink" width="55px" height="88px" xmlns="http://www.w3.org/2000/svg">
  <defs>
    <pattern id="BGPattern" patternUnits="userSpaceOnUse" alignment="0 0" imageRepeat="None" />
    <mask fill="white" id="Clip163">
      <path d="M 0 55.34591194968553  C 0 24.352201257861633  23.950000000000042 0  54.750000000000036 0  C 54.98809523809523 53.19436957172806  54.51190476190476 2.879904162923014  55 55.34591194968553  C 15.226190476190464 83.86223420185684  52.60714285714286 57.507038035339896  10.088105737149453 87.65502716860688  C 9.934743204397392 87.44399265812474  10.238521713984653 87.86839932264965  10.088105737149453 87.65502716860688  C 3.7156592202083742 78.61541137478967  0 67.49052913670873  0 55.34591194968553  Z " fill-rule="evenodd" />
    </mask>
  </defs>
  <g transform="matrix(1 0 0 1 -1617 -1620 )">
    <path d="M 0 55.34591194968553  C 0 24.352201257861633  23.950000000000042 0  54.750000000000036 0  C 54.98809523809523 53.19436957172806  54.51190476190476 2.879904162923014  55 55.34591194968553  C 15.226190476190464 83.86223420185684  52.60714285714286 57.507038035339896  10.088105737149453 87.65502716860688  C 9.934743204397392 87.44399265812474  10.238521713984653 87.86839932264965  10.088105737149453 87.65502716860688  C 3.7156592202083742 78.61541137478967  0 67.49052913670873  0 55.34591194968553  Z " fill-rule="nonzero" fill="rgba(194, 128, 255, 1)" stroke="none" transform="matrix(1 0 0 1 1617 1620 )" class="fill" />
    <path d="M 0 55.34591194968553  C 0 24.352201257861633  23.950000000000042 0  54.750000000000036 0  C 54.98809523809523 53.19436957172806  54.51190476190476 2.879904162923014  55 55.34591194968553  C 15.226190476190464 83.86223420185684  52.60714285714286 57.507038035339896  10.088105737149453 87.65502716860688  C 9.934743204397392 87.44399265812474  10.238521713984653 87.86839932264965  10.088105737149453 87.65502716860688  C 3.7156592202083742 78.61541137478967  0 67.49052913670873  0 55.34591194968553  Z " stroke-width="0" stroke-dasharray="0" stroke="rgba(215, 215, 215, 1)" fill="none" transform="matrix(1 0 0 1 1617 1620 )" class="stroke" mask="url(#Clip163)" />
  </g>
</svg>