<?xml version="1.0" encoding="utf-8"?>
<svg version="1.1" xmlns:xlink="http://www.w3.org/1999/xlink" width="110px" height="110px" xmlns="http://www.w3.org/2000/svg">
  <defs>
    <pattern id="BGPattern" patternUnits="userSpaceOnUse" alignment="0 0" imageRepeat="None" />
    <mask fill="white" id="Clip13">
      <path d="M 0 55  C 0 24.199999999999996  24.199999999999996 0  55 0  C 85.8 0  110 24.199999999999996  110 55  C 110 85.8  85.8 110  55 110  C 24.199999999999996 110  0 85.8  0 55  Z " fill-rule="evenodd" />
    </mask>
  </defs>
  <g transform="matrix(1 0 0 1 -370 -1620 )">
    <path d="M 0 55  C 0 24.199999999999996  24.199999999999996 0  55 0  C 85.8 0  110 24.199999999999996  110 55  C 110 85.8  85.8 110  55 110  C 24.199999999999996 110  0 85.8  0 55  Z " fill-rule="nonzero" fill="rgba(128, 128, 255, 1)" stroke="none" transform="matrix(1 0 0 1 370 1620 )" class="fill" />
    <path d="M 0 55  C 0 24.199999999999996  24.199999999999996 0  55 0  C 85.8 0  110 24.199999999999996  110 55  C 110 85.8  85.8 110  55 110  C 24.199999999999996 110  0 85.8  0 55  Z " stroke-width="0" stroke-dasharray="0" stroke="rgba(215, 215, 215, 1)" fill="none" transform="matrix(1 0 0 1 370 1620 )" class="stroke" mask="url(#Clip13)" />
  </g>
</svg>