<?xml version="1.0" encoding="utf-8"?>
<svg version="1.1" xmlns:xlink="http://www.w3.org/1999/xlink" width="38px" height="18px" xmlns="http://www.w3.org/2000/svg">
  <defs>
    <pattern id="BGPattern" patternUnits="userSpaceOnUse" alignment="0 0" imageRepeat="None" />
    <mask fill="white" id="Clip149">
      <path d="M 0 14  L 0 4  C 0 1.759999999999991  1.759999999999991 0  4 0  L 18 0  L 34 0  C 36.24000000000001 0  38 1.759999999999991  38 4  L 38 14  C 38 16.24000000000001  36.24000000000001 18  34 18  L 4 18  C 1.759999999999991 18  0 16.24000000000001  0 14  Z " fill-rule="evenodd" />
    </mask>
  </defs>
  <g transform="matrix(1 0 0 1 -649 -569 )">
    <path d="M 0 14  L 0 4  C 0 1.759999999999991  1.759999999999991 0  4 0  L 18 0  L 34 0  C 36.24000000000001 0  38 1.759999999999991  38 4  L 38 14  C 38 16.24000000000001  36.24000000000001 18  34 18  L 4 18  C 1.759999999999991 18  0 16.24000000000001  0 14  Z " fill-rule="nonzero" fill="rgba(170, 170, 170, 1)" stroke="none" transform="matrix(1 0 0 1 649 569 )" class="fill" />
    <path d="M 0 14  L 0 4  C 0 1.759999999999991  1.759999999999991 0  4 0  L 18 0  L 34 0  C 36.24000000000001 0  38 1.759999999999991  38 4  L 38 14  C 38 16.24000000000001  36.24000000000001 18  34 18  L 4 18  C 1.759999999999991 18  0 16.24000000000001  0 14  Z " stroke-width="0" stroke-dasharray="0" stroke="rgba(215, 215, 215, 1)" fill="none" transform="matrix(1 0 0 1 649 569 )" class="stroke" mask="url(#Clip149)" />
  </g>
</svg>