<?xml version="1.0" encoding="utf-8"?>
<svg version="1.1" xmlns:xlink="http://www.w3.org/1999/xlink" width="118px" height="31px" xmlns="http://www.w3.org/2000/svg">
  <defs>
    <linearGradient gradientUnits="userSpaceOnUse" x1="116.82" y1="15.5" x2="0" y2="15.5" id="LinearGradient278">
      <stop id="Stop279" stop-color="#d9001b" stop-opacity="0.8" offset="0" />
      <stop id="Stop280" stop-color="#70b603" stop-opacity="0.8" offset="1" />
    </linearGradient>
    <pattern id="BGPattern" patternUnits="userSpaceOnUse" alignment="0 0" imageRepeat="None" />
    <mask fill="white" id="Clip281">
      <path d="M 13.136795823767544 29.827501488035324  C 5.442323897510044 27.996785080890803  0.29184836962733574 24.19467553468932  0.5833716962682959 14.406525123663375  C 0.8748950229088436 4.618374712636619  10.624861542688382 -0.11996679288615747  15.85409128890928 0.683572692994152  L 112.67949667998022 11.995607134989578  C 115.47949667998014 11.995607134989406  117.67949667998022 14.195607134989588  117.67949667997975 16.99560713498874  C 117.67949667997969 19.795607134988714  115.47949667997969 21.995607134988667  112.67949667997975 21.99560713498884  C 112.67949667997975 21.99560713498884  20.831267750025045 31.658217895179853  13.136795823767544 29.827501488035324  Z " fill-rule="evenodd" />
    </mask>
  </defs>
  <g transform="matrix(1 0 0 1 -286 -500 )">
    <path d="M 13.136795823767544 29.827501488035324  C 5.442323897510044 27.996785080890803  0.29184836962733574 24.19467553468932  0.5833716962682959 14.406525123663375  C 0.8748950229088436 4.618374712636619  10.624861542688382 -0.11996679288615747  15.85409128890928 0.683572692994152  L 112.67949667998022 11.995607134989578  C 115.47949667998014 11.995607134989406  117.67949667998022 14.195607134989588  117.67949667997975 16.99560713498874  C 117.67949667997969 19.795607134988714  115.47949667997969 21.995607134988667  112.67949667997975 21.99560713498884  C 112.67949667997975 21.99560713498884  20.831267750025045 31.658217895179853  13.136795823767544 29.827501488035324  Z " fill-rule="nonzero" fill="url(#LinearGradient278)" stroke="none" transform="matrix(1 0 0 1 286 500 )" class="fill" />
    <path d="M 13.136795823767544 29.827501488035324  C 5.442323897510044 27.996785080890803  0.29184836962733574 24.19467553468932  0.5833716962682959 14.406525123663375  C 0.8748950229088436 4.618374712636619  10.624861542688382 -0.11996679288615747  15.85409128890928 0.683572692994152  L 112.67949667998022 11.995607134989578  C 115.47949667998014 11.995607134989406  117.67949667998022 14.195607134989588  117.67949667997975 16.99560713498874  C 117.67949667997969 19.795607134988714  115.47949667997969 21.995607134988667  112.67949667997975 21.99560713498884  C 112.67949667997975 21.99560713498884  20.831267750025045 31.658217895179853  13.136795823767544 29.827501488035324  Z " stroke-width="0" stroke-dasharray="0" stroke="rgba(215, 215, 215, 1)" fill="none" transform="matrix(1 0 0 1 286 500 )" class="stroke" mask="url(#Clip281)" />
  </g>
</svg>