<?xml version="1.0" encoding="utf-8"?>
<svg version="1.1" xmlns:xlink="http://www.w3.org/1999/xlink" width="79px" height="6px" xmlns="http://www.w3.org/2000/svg">
  <defs>
    <linearGradient gradientUnits="userSpaceOnUse" x1="78.21" y1="3" x2="0" y2="3" id="LinearGradient125">
      <stop id="Stop126" stop-color="#d9001b" stop-opacity="0.8" offset="0" />
      <stop id="Stop127" stop-color="#70b603" stop-opacity="0.8" offset="1" />
    </linearGradient>
    <pattern id="BGPattern" patternUnits="userSpaceOnUse" alignment="0 0" imageRepeat="None" />
    <mask fill="white" id="Clip128">
      <path d="M 3 6  C 1.3199999999999998 6  0 4.68  0 3  C 0 1.3199999999999998  1.3199999999999998 0  3 0  L 76 0  C 77.68 0  79 1.3199999999999998  79 3  C 79 4.68  77.68 6  76 6  L 3 6  Z " fill-rule="evenodd" />
    </mask>
  </defs>
  <g transform="matrix(1 0 0 1 -272 -310 )">
    <path d="M 3 6  C 1.3199999999999998 6  0 4.68  0 3  C 0 1.3199999999999998  1.3199999999999998 0  3 0  L 76 0  C 77.68 0  79 1.3199999999999998  79 3  C 79 4.68  77.68 6  76 6  L 3 6  Z " fill-rule="nonzero" fill="url(#LinearGradient125)" stroke="none" transform="matrix(1 0 0 1 272 310 )" class="fill" />
    <path d="M 3 6  C 1.3199999999999998 6  0 4.68  0 3  C 0 1.3199999999999998  1.3199999999999998 0  3 0  L 76 0  C 77.68 0  79 1.3199999999999998  79 3  C 79 4.68  77.68 6  76 6  L 3 6  Z " stroke-width="0" stroke-dasharray="0" stroke="rgba(215, 215, 215, 1)" fill="none" transform="matrix(1 0 0 1 272 310 )" class="stroke" mask="url(#Clip128)" />
  </g>
</svg>