<?xml version="1.0" encoding="utf-8"?>
<svg version="1.1" xmlns:xlink="http://www.w3.org/1999/xlink" width="80px" height="31px" xmlns="http://www.w3.org/2000/svg">
  <defs>
    <pattern id="BGPattern" patternUnits="userSpaceOnUse" alignment="0 0" imageRepeat="None" />
    <mask fill="white" id="Clip128">
      <path d="M 13 26  C 5.720000000000027 26  0 20.279999999999973  0 13  C 0 5.720000000000027  5.720000000000027 0  13 0  L 67 0  C 74.27999999999997 0  80 5.720000000000027  80 13  C 80 20.279999999999973  74.27999999999997 26  67 26  L 46.69135802469145 26  L 41.25925925925935 31  L 35.82716049382725 26  L 13 26  Z " fill-rule="evenodd" />
    </mask>
  </defs>
  <g transform="matrix(1 0 0 1 -278 -359 )">
    <path d="M 13 26  C 5.720000000000027 26  0 20.279999999999973  0 13  C 0 5.720000000000027  5.720000000000027 0  13 0  L 67 0  C 74.27999999999997 0  80 5.720000000000027  80 13  C 80 20.279999999999973  74.27999999999997 26  67 26  L 46.69135802469145 26  L 41.25925925925935 31  L 35.82716049382725 26  L 13 26  Z " fill-rule="nonzero" fill="rgba(170, 170, 170, 1)" stroke="none" transform="matrix(1 0 0 1 278 359 )" class="fill" />
    <path d="M 13 26  C 5.720000000000027 26  0 20.279999999999973  0 13  C 0 5.720000000000027  5.720000000000027 0  13 0  L 67 0  C 74.27999999999997 0  80 5.720000000000027  80 13  C 80 20.279999999999973  74.27999999999997 26  67 26  L 46.69135802469145 26  L 41.25925925925935 31  L 35.82716049382725 26  L 13 26  Z " stroke-width="0" stroke-dasharray="0" stroke="rgba(215, 215, 215, 1)" fill="none" transform="matrix(1 0 0 1 278 359 )" class="stroke" mask="url(#Clip128)" />
  </g>
</svg>