<?xml version="1.0" encoding="utf-8"?>
<svg version="1.1" xmlns:xlink="http://www.w3.org/1999/xlink" width="235px" height="10px" preserveAspectRatio="xMinYMid meet" viewBox="300 454 235 8" xmlns="http://www.w3.org/2000/svg">
  <path d="M 300 458  L 524 458  " stroke-width="2" stroke-dasharray="6,2" stroke="rgba(0, 153, 204, 1)" fill="none" class="stroke" />
  <path d="M 526.5 454.5  A 3.5 3.5 0 0 0 523 458 A 3.5 3.5 0 0 0 526.5 461.5 A 3.5 3.5 0 0 0 530 458 A 3.5 3.5 0 0 0 526.5 454.5 Z M 526.5 456.5  A 1.5 1.5 0 0 1 528 458 A 1.5 1.5 0 0 1 526.5 459.5 A 1.5 1.5 0 0 1 525 458 A 1.5 1.5 0 0 1 526.5 456.5 Z " fill-rule="nonzero" fill="rgba(0, 153, 204, 1)" stroke="none" class="fill" />
</svg>