<?xml version="1.0" encoding="utf-8"?>
<svg version="1.1" xmlns:xlink="http://www.w3.org/1999/xlink" width="10px" height="24px" preserveAspectRatio="xMidYMin meet" viewBox="356 861 8 24" xmlns="http://www.w3.org/2000/svg">
  <path d="M 360 861  L 360 875  A 5 5 0 0 0 365 880 L 503 880  A 5 5 0 0 0 508 875 L 508 855  A 5 5 0 0 1 513 850 L 524 850  " stroke-width="2" stroke-dasharray="6,2" stroke="rgba(0, 153, 204, 1)" fill="none" class="stroke" />
  <path d="M 526.5 846.5  A 3.5 3.5 0 0 0 523 850 A 3.5 3.5 0 0 0 526.5 853.5 A 3.5 3.5 0 0 0 530 850 A 3.5 3.5 0 0 0 526.5 846.5 Z M 526.5 848.5  A 1.5 1.5 0 0 1 528 850 A 1.5 1.5 0 0 1 526.5 851.5 A 1.5 1.5 0 0 1 525 850 A 1.5 1.5 0 0 1 526.5 848.5 Z " fill-rule="nonzero" fill="rgba(0, 153, 204, 1)" stroke="none" class="fill" />
</svg>