<?xml version="1.0" encoding="utf-8"?>
<svg version="1.1" xmlns:xlink="http://www.w3.org/1999/xlink" width="211px" height="10px" preserveAspectRatio="xMinYMid meet" viewBox="314 310 211 8" xmlns="http://www.w3.org/2000/svg">
  <path d="M 314 314  L 519.5 314  A 0.5 0.5 0 0 0 520 313.5 A 0.5 0.5 0 0 1 520.5 313 L 524 313  " stroke-width="2" stroke-dasharray="6,2" stroke="rgba(0, 153, 204, 1)" fill="none" class="stroke" />
  <path d="M 526.5 309.5  A 3.5 3.5 0 0 0 523 313 A 3.5 3.5 0 0 0 526.5 316.5 A 3.5 3.5 0 0 0 530 313 A 3.5 3.5 0 0 0 526.5 309.5 Z M 526.5 311.5  A 1.5 1.5 0 0 1 528 313 A 1.5 1.5 0 0 1 526.5 314.5 A 1.5 1.5 0 0 1 525 313 A 1.5 1.5 0 0 1 526.5 311.5 Z " fill-rule="nonzero" fill="rgba(0, 153, 204, 1)" stroke="none" class="fill" />
</svg>