<svg t="1711166524199" class="icon" viewBox="0 0 1024 1024" version="1.1" xmlns="http://www.w3.org/2000/svg" p-id="5286" width="32" height="32"><path d="M679.68 916.48H344.32c-136.96 0-248.32-112.64-248.32-252.16V359.68c0-139.52 111.36-252.16 248.32-252.16h337.92c135.68 0 245.76 112.64 245.76 252.16v307.2c0 136.96-111.36 249.6-248.32 249.6zM344.32 171.52c-101.12 0-184.32 84.48-184.32 188.16v304.64c0 103.68 83.2 188.16 184.32 188.16h335.36c101.12 0 184.32-83.2 184.32-185.6v-307.2c0-103.68-81.92-188.16-181.76-188.16H344.32z" p-id="5287" fill="#8a8a8a"></path><path d="M704 704c-11.52 0-23.04-6.4-28.16-17.92l-71.68-139.52-79.36 140.8c-5.12 10.24-15.36 16.64-25.6 16.64-11.52 0-21.76-5.12-28.16-14.08l-65.28-93.44-57.6 92.16c-8.96 15.36-29.44 19.2-43.52 10.24-15.36-8.96-19.2-29.44-10.24-43.52l83.2-133.12c5.12-8.96 15.36-14.08 26.88-15.36 11.52 0 20.48 5.12 26.88 14.08l64 90.88 83.2-148.48c6.4-10.24 16.64-16.64 28.16-16.64 11.52 0 23.04 6.4 28.16 17.92l98.56 192c7.68 15.36 1.28 34.56-14.08 43.52-5.12 2.56-10.24 3.84-15.36 3.84z" p-id="5288" fill="#8a8a8a"></path><path d="M340.48 363.52m-38.4 0a38.4 38.4 0 1 0 76.8 0 38.4 38.4 0 1 0-76.8 0Z" p-id="5289" fill="#8a8a8a"></path></svg>