<?xml version="1.0" encoding="utf-8"?>
<svg version="1.1" xmlns:xlink="http://www.w3.org/1999/xlink" width="40px" height="49px" xmlns="http://www.w3.org/2000/svg">
  <defs>
    <pattern id="BGPattern" patternUnits="userSpaceOnUse" alignment="0 0" imageRepeat="None" />
    <mask fill="white" id="Clip292">
      <path d="M 0 47.80373831775702  L 0 3  C 0 1.3199999999999932  1.3199999999999932 0  3 0  L 37 0  C 38.68000000000001 0  40 1.3199999999999932  40 3  L 40 37  C 40 38.68000000000001  38.68000000000001 40  37 40  L 10.35514018691589 40  C 8.675140186915883 40  0 49.48373831775702  0 47.80373831775702  Z " fill-rule="evenodd" />
    </mask>
  </defs>
  <g transform="matrix(1 0 0 1 -153 -211 )">
    <path d="M 0 47.80373831775702  L 0 3  C 0 1.3199999999999932  1.3199999999999932 0  3 0  L 37 0  C 38.68000000000001 0  40 1.3199999999999932  40 3  L 40 37  C 40 38.68000000000001  38.68000000000001 40  37 40  L 10.35514018691589 40  C 8.675140186915883 40  0 49.48373831775702  0 47.80373831775702  Z " fill-rule="nonzero" fill="rgba(215, 215, 215, 1)" stroke="none" transform="matrix(1 0 0 1 153 211 )" class="fill" />
    <path d="M 0 47.80373831775702  L 0 3  C 0 1.3199999999999932  1.3199999999999932 0  3 0  L 37 0  C 38.68000000000001 0  40 1.3199999999999932  40 3  L 40 37  C 40 38.68000000000001  38.68000000000001 40  37 40  L 10.35514018691589 40  C 8.675140186915883 40  0 49.48373831775702  0 47.80373831775702  Z " stroke-width="0" stroke-dasharray="0" stroke="rgba(215, 215, 215, 1)" fill="none" transform="matrix(1 0 0 1 153 211 )" class="stroke" mask="url(#Clip292)" />
  </g>
</svg>