<svg t="1663819736692" class="icon" viewBox="0 0 1171 1024" version="1.1" xmlns="http://www.w3.org/2000/svg" p-id="8015" width="32" height="32"><path d="M512 895.069091a512 512 0 0 1-512-512 27.694545 27.694545 0 0 1 55.156364 0 456.843636 456.843636 0 0 0 913.687272 0 27.694545 27.694545 0 0 1 55.156364 0 512 512 0 0 1-512 512zM760.785455 14.661818a27.927273 27.927273 0 0 0-17.687273-13.498182 26.065455 26.065455 0 0 0-11.170909 0l-225.047273 28.392728a29.090909 29.090909 0 0 0-25.134545 32.581818 29.323636 29.323636 0 0 0 32.581818 25.134545l155.461818-20.247272-202.472727 262.74909a29.090909 29.090909 0 0 0 5.12 40.727273 27.694545 27.694545 0 0 0 21.643636 5.818182 29.323636 29.323636 0 0 0 19.316364-10.938182l202.472727-261.585454 20.014545 155.229091a29.090909 29.090909 0 1 0 57.716364-7.447273l-29.090909-226.210909a29.323636 29.323636 0 0 0-3.723636-10.705455z m-302.545455 420.770909a40.727273 40.727273 0 1 1-46.545455-35.141818 40.727273 40.727273 0 0 1 47.243637 35.141818z" p-id="8016" fill="#8a8a8a"></path></svg>