<svg t="1664245955310" class="icon" viewBox="0 0 1024 1024" version="1.1" xmlns="http://www.w3.org/2000/svg" p-id="3061" width="32" height="32"><path d="M513.3 712.1c104.4 0 189.1-84.7 189.1-189.1V252.9c0-104.4-84.7-189.1-189.1-189.1-104.4 0-189.1 84.7-189.1 189.1V523c0 104.5 84.7 189.1 189.1 189.1z m297.1-135h-54C731.8 685.3 629 766.2 513.3 766.2s-218.5-80.9-243.1-189.1h-54C240 706.7 352.9 806.9 486.3 819v55.2h-27c-14.9 0-27 12.1-27 27s12.1 27 27 27h108c14.9 0 27-12.1 27-27s-12.1-27-27-27h-27V819c133.4-12.1 246.3-112.3 270.1-241.9z" p-id="3062" fill="#ffffff"></path></svg>