<svg t="1664421856787" class="icon" viewBox="0 0 1024 1024" version="1.1" xmlns="http://www.w3.org/2000/svg" p-id="9057" width="48" height="48"><path d="M700.35 323.87c-12.18-12.18-31.92-12.18-44.1 0L512.1 468.03 367.94 323.87c-12.18-12.18-31.92-12.18-44.1 0s-12.18 31.92 0 44.1l144.15 144.15-144.15 144.16c-12.18 12.18-12.18 31.92 0 44.1s31.92 12.18 44.1 0L512.1 556.23l144.15 144.15c12.18 12.18 31.92 12.18 44.1 0s12.18-31.92 0-44.1L556.2 512.13l144.15-144.15c12.18-12.19 12.18-31.93 0-44.11z" fill="#ffffff" p-id="9058"></path><path d="M512.1 67.13c-245.38 0-445 199.62-445 444.99s199.62 445.01 445 445.01S957.09 757.5 957.09 512.12 757.47 67.13 512.1 67.13z m0 827.63c-210.98 0-382.63-171.65-382.63-382.64 0-210.98 171.65-382.63 382.63-382.63s382.63 171.65 382.63 382.63c-0.01 210.99-171.65 382.64-382.63 382.64z" fill="#ffffff" p-id="9059"></path></svg>