<?xml version="1.0" encoding="utf-8"?>
<svg version="1.1" xmlns:xlink="http://www.w3.org/1999/xlink" width="398px" height="404px" xmlns="http://www.w3.org/2000/svg">
  <defs>
    <pattern id="BGPattern" patternUnits="userSpaceOnUse" alignment="0 0" imageRepeat="None" />
    <mask fill="white" id="Clip59">
      <path d="M 200.4255372627879 401.2107397260272  L 0.3501319592810224 135.56690410958885  C 182.91893929873055 16.027178082191877  215.2111097147173 0  225.43496292572632 0  L 337.97737840894854 148.84909589041078  C 348.2012316199576 148.84909589041078  398 232.77483835616448  398 241.8244383561645  L 351.8326002262161 266.17512328767106  C 365.4877466381801 288.31210958904114  348.2012316199576 308.2353972602739  337.97737840894854 308.2353972602739  L 287.9585270830717 345.8682739726028  C 277.73467387206273 345.8682739726028  200.4255372627879 410.2603397260271  200.4255372627879 401.2107397260272  Z " fill-rule="evenodd" />
    </mask>
  </defs>
  <g transform="matrix(1 0 0 1 -111 -191 )">
    <path d="M 200.4255372627879 401.2107397260272  L 0.3501319592810224 135.56690410958885  C 182.91893929873055 16.027178082191877  215.2111097147173 0  225.43496292572632 0  L 337.97737840894854 148.84909589041078  C 348.2012316199576 148.84909589041078  398 232.77483835616448  398 241.8244383561645  L 351.8326002262161 266.17512328767106  C 365.4877466381801 288.31210958904114  348.2012316199576 308.2353972602739  337.97737840894854 308.2353972602739  L 287.9585270830717 345.8682739726028  C 277.73467387206273 345.8682739726028  200.4255372627879 410.2603397260271  200.4255372627879 401.2107397260272  Z " fill-rule="nonzero" fill="rgba(195, 255, 208, 0.6235294117647059)" stroke="none" transform="matrix(1 0 0 1 111 191 )" class="fill" />
    <path d="M 200.4255372627879 401.2107397260272  L 0.3501319592810224 135.56690410958885  C 182.91893929873055 16.027178082191877  215.2111097147173 0  225.43496292572632 0  L 337.97737840894854 148.84909589041078  C 348.2012316199576 148.84909589041078  398 232.77483835616448  398 241.8244383561645  L 351.8326002262161 266.17512328767106  C 365.4877466381801 288.31210958904114  348.2012316199576 308.2353972602739  337.97737840894854 308.2353972602739  L 287.9585270830717 345.8682739726028  C 277.73467387206273 345.8682739726028  200.4255372627879 410.2603397260271  200.4255372627879 401.2107397260272  Z " stroke-width="4" stroke-dasharray="0" stroke="rgba(97, 196, 119, 0.6)" fill="none" transform="matrix(1 0 0 1 111 191 )" class="stroke" mask="url(#Clip59)" />
  </g>
</svg>