<?xml version="1.0" encoding="utf-8"?>
<svg version="1.1" xmlns:xlink="http://www.w3.org/1999/xlink" width="80px" height="80px" xmlns="http://www.w3.org/2000/svg">
  <g transform="matrix(1 0 0 1 -1125 -1372 )">
    <path d="M 1125 1372  L 1205 1372  L 1205 1452  L 1125 1452  L 1125 1372  " fill-rule="nonzero" fill="rgba(204, 204, 204, 1)" stroke="none" class="fill" />
    <path d="M 1131 1378  L 1199 1378  L 1199 1446  L 1131 1446  L 1131 1378  " fill-rule="nonzero" fill="rgba(255, 255, 255, 1)" stroke="none" class="fill" />
    <path d="M 1172.6 1396  C 1169.24 1396  1166.6 1393.36  1166.6 1390  C 1166.6 1386.64  1169.24 1384  1172.6 1384  C 1175.9599999999998 1384  1178.6 1386.64  1178.6 1390  C 1178.6 1393.36  1175.9599999999998 1396  1172.6 1396  " fill-rule="nonzero" fill="rgba(204, 204, 204, 1)" stroke="none" class="fill" />
    <path d="M 1133 1444  L 1133 1408.8  L 1149 1392.8  L 1171.4 1405.6  L 1184.2 1402.4  L 1197 1405.6  L 1197 1444  L 1133 1444  " fill-rule="nonzero" fill="rgba(22, 155, 213, 1)" stroke="none" class="fill" />
  </g>
</svg>