<?xml version="1.0" encoding="utf-8"?>
<svg version="1.1" xmlns:xlink="http://www.w3.org/1999/xlink" width="12px" height="15px" xmlns="http://www.w3.org/2000/svg">
  <defs>
    <pattern id="BGPattern" patternUnits="userSpaceOnUse" alignment="0 0" imageRepeat="None" />
    <mask fill="white" id="Clip298">
      <path d="M 4 7.666699999999998  L 8 7.666699999999998  C 9.841000000000008 7.666699999999998  12 9.095199999999998  12 11.666699999999999  L 12 13.666699999999999  C 12 14.0349  11.701999999999998 14.333300000000001  11.33299999999997 14.333300000000001  L 0.6669999999999732 14.333300000000001  C 0.2980000000000018 14.333300000000001  0 14.0349  0 13.666699999999999  L 0 11.666699999999999  C 0 9.0974  2.158999999999992 7.666699999999998  4 7.666699999999998  Z M 2.666999999999973 3.3333000000000013  C 2.666999999999973 1.4924  4.158999999999992 0  6 0  C 7.841000000000008 0  9.33299999999997 1.4924  9.33299999999997 3.3333000000000013  C 9.33299999999997 5.174299999999999  7.841000000000008 6.666699999999999  6 6.666699999999999  C 4.158999999999992 6.666699999999999  2.666999999999973 5.174299999999999  2.666999999999973 3.3333000000000013  Z " fill-rule="evenodd" />
    </mask>
  </defs>
  <g transform="matrix(1 0 0 1 -975 -3542 )">
    <path d="M 4 7.666699999999998  L 8 7.666699999999998  C 9.841000000000008 7.666699999999998  12 9.095199999999998  12 11.666699999999999  L 12 13.666699999999999  C 12 14.0349  11.701999999999998 14.333300000000001  11.33299999999997 14.333300000000001  L 0.6669999999999732 14.333300000000001  C 0.2980000000000018 14.333300000000001  0 14.0349  0 13.666699999999999  L 0 11.666699999999999  C 0 9.0974  2.158999999999992 7.666699999999998  4 7.666699999999998  Z M 2.666999999999973 3.3333000000000013  C 2.666999999999973 1.4924  4.158999999999992 0  6 0  C 7.841000000000008 0  9.33299999999997 1.4924  9.33299999999997 3.3333000000000013  C 9.33299999999997 5.174299999999999  7.841000000000008 6.666699999999999  6 6.666699999999999  C 4.158999999999992 6.666699999999999  2.666999999999973 5.174299999999999  2.666999999999973 3.3333000000000013  Z " fill-rule="nonzero" fill="rgba(255, 255, 255, 1)" stroke="none" transform="matrix(1 0 0 1 975 3542 )" class="fill" />
    <path d="M 4 7.666699999999998  L 8 7.666699999999998  C 9.841000000000008 7.666699999999998  12 9.095199999999998  12 11.666699999999999  L 12 13.666699999999999  C 12 14.0349  11.701999999999998 14.333300000000001  11.33299999999997 14.333300000000001  L 0.6669999999999732 14.333300000000001  C 0.2980000000000018 14.333300000000001  0 14.0349  0 13.666699999999999  L 0 11.666699999999999  C 0 9.0974  2.158999999999992 7.666699999999998  4 7.666699999999998  Z " stroke-width="0" stroke-dasharray="0" stroke="rgba(255, 255, 255, 0)" fill="none" transform="matrix(1 0 0 1 975 3542 )" class="stroke" mask="url(#Clip298)" />
    <path d="M 2.666999999999973 3.3333000000000013  C 2.666999999999973 1.4924  4.158999999999992 0  6 0  C 7.841000000000008 0  9.33299999999997 1.4924  9.33299999999997 3.3333000000000013  C 9.33299999999997 5.174299999999999  7.841000000000008 6.666699999999999  6 6.666699999999999  C 4.158999999999992 6.666699999999999  2.666999999999973 5.174299999999999  2.666999999999973 3.3333000000000013  Z " stroke-width="0" stroke-dasharray="0" stroke="rgba(255, 255, 255, 0)" fill="none" transform="matrix(1 0 0 1 975 3542 )" class="stroke" mask="url(#Clip298)" />
  </g>
</svg>