<?xml version="1.0" encoding="utf-8"?>
<svg version="1.1" xmlns:xlink="http://www.w3.org/1999/xlink" width="83px" height="14px" xmlns="http://www.w3.org/2000/svg">
  <defs>
    <pattern id="BGPattern" patternUnits="userSpaceOnUse" alignment="0 0" imageRepeat="None" />
    <mask fill="white" id="Clip64">
      <path d="M 0 14  L 0 0  L 47.42857142857142 0  L 83 0  L 83 7  L 83 14  L 47.42857142857142 14  L 0 14  Z " fill-rule="evenodd" />
    </mask>
  </defs>
  <g transform="matrix(1 0 0 1 -921 -424 )">
    <path d="M 0 14  L 0 0  L 47.42857142857142 0  L 83 0  L 83 7  L 83 14  L 47.42857142857142 14  L 0 14  Z " fill-rule="nonzero" fill="rgba(255, 255, 255, 0.996078431372549)" stroke="none" transform="matrix(1 0 0 1 921 424 )" class="fill" />
    <path d="M 0 14  L 0 0  L 47.42857142857142 0  L 83 0  L 83 7  L 83 14  L 47.42857142857142 14  L 0 14  Z " stroke-width="0" stroke-dasharray="0" stroke="rgba(215, 215, 215, 1)" fill="none" transform="matrix(1 0 0 1 921 424 )" class="stroke" mask="url(#Clip64)" />
  </g>
</svg>