<?xml version="1.0" encoding="utf-8"?>
<svg version="1.1" xmlns:xlink="http://www.w3.org/1999/xlink" width="114px" height="52px" xmlns="http://www.w3.org/2000/svg">
  <defs>
    <pattern id="BGPattern" patternUnits="userSpaceOnUse" alignment="0 0" imageRepeat="None" />
    <mask fill="white" id="Clip214">
      <path d="M 0 52  L 0 0  L 114 0  L 114 52  L 0 52  Z " fill-rule="evenodd" />
    </mask>
  </defs>
  <g transform="matrix(1 0 0 1 -436 -455 )">
    <path d="M 0 52  L 0 0  L 114 0  L 114 52  L 0 52  Z " fill-rule="nonzero" fill="rgba(242, 242, 242, 1)" stroke="none" transform="matrix(1 0 0 1 436 455 )" class="fill" />
    <path d="M 0 52  L 0 0  L 114 0  L 114 52  L 0 52  Z " stroke-width="2" stroke-dasharray="0" stroke="rgba(215, 215, 215, 1)" fill="none" transform="matrix(1 0 0 1 436 455 )" class="stroke" mask="url(#Clip214)" />
    <path d="M 113.0026983509095 0.4549095241465446  L 0.9973016490905016 51.545090475853456  M 0.9973016490905016 0.4549095241465446  L 113.0026983509095 51.545090475853456  " stroke-width="1" stroke-dasharray="0" stroke="rgba(215, 215, 215, 1)" fill="none" transform="matrix(1 0 0 1 436 455 )" class="stroke" />
  </g>
</svg>