<?xml version="1.0" encoding="utf-8"?>
<svg version="1.1" xmlns:xlink="http://www.w3.org/1999/xlink" width="340px" height="210px" xmlns="http://www.w3.org/2000/svg">
  <defs>
    <pattern id="BGPattern" patternUnits="userSpaceOnUse" alignment="0 0" imageRepeat="None" />
    <mask fill="white" id="Clip62">
      <path d="M 0 204  L 0 6  C 0 2.6399999999999997  2.6399999999999997 0  6 0  L 334 0  C 337.36 0  340 2.6399999999999997  340 6  L 340 204  C 340 207.36  337.36 210  334 210  L 6 210  C 2.6399999999999997 210  0 207.36  0 204  Z " fill-rule="evenodd" />
    </mask>
  </defs>
  <g transform="matrix(1 0 0 1 -310 -129 )">
    <path d="M 0 204  L 0 6  C 0 2.6399999999999997  2.6399999999999997 0  6 0  L 334 0  C 337.36 0  340 2.6399999999999997  340 6  L 340 204  C 340 207.36  337.36 210  334 210  L 6 210  C 2.6399999999999997 210  0 207.36  0 204  Z " fill-rule="nonzero" fill="rgba(255, 255, 255, 1)" stroke="none" transform="matrix(1 0 0 1 310 129 )" class="fill" />
    <path d="M 0 204  L 0 6  C 0 2.6399999999999997  2.6399999999999997 0  6 0  L 334 0  C 337.36 0  340 2.6399999999999997  340 6  L 340 204  C 340 207.36  337.36 210  334 210  L 6 210  C 2.6399999999999997 210  0 207.36  0 204  Z " stroke-width="2" stroke-dasharray="3,1" stroke="rgba(215, 215, 215, 1)" fill="none" transform="matrix(1 0 0 1 310 129 )" class="stroke" mask="url(#Clip62)" />
  </g>
</svg>