<svg t="1771082227354" class="icon" viewBox="0 0 1024 1024" version="1.1" xmlns="http://www.w3.org/2000/svg" p-id="7252" width="32" height="32"><path d="M896.2 95.9c0-17.6-14.4-32.1-32.1-32.1H160.8c-17.6 0-32.1 14.4-32.1 32.1 0 17.6 14.4 32.1 32.1 32.1h55.7c-7.6 13.9-11.1 28.2-13.2 39.8-5 27.2-5.3 59.5-5.3 109.5 0 23.9 7.4 49.3 22.1 75.6 12.7 22.9 30.6 45.9 53.1 68.3 28.4 28.4 62.7 54.3 98.9 75-36.5 22.5-71.1 50.7-99.7 81.6-47.9 51.8-74.3 106.1-74.3 153 0 73.8 11.9 126.6 37.1 163.2H161c-17.6 0-32.1 14.4-32.1 32.1 0 17.6 14.4 32.1 32.1 32.1h200.4c13.5 1.2 27.4 1.6 41.7 1.6 17 0 34.5-0.6 52.2-1.2 4-0.1 8-0.3 12.1-0.4h95l10.2 0.3c31.8 1 62.9 2 92-0.3h199.8c17.6 0 32.1-14.4 32.1-32.1 0-17.6-14.4-32.1-32.1-32.1h-71.2c25.4-36.7 37.4-89.4 37.4-163.2 0-46.9-26.6-101.2-74.8-153.1-28.7-30.9-63.5-59-100-81.5 36.2-20.7 70.7-46.6 99.2-74.9 22.6-22.5 40.6-45.5 53.4-68.3 14.8-26.3 22.3-51.8 22.3-75.7 0-13.2 0.1-25.3 0.3-37 0.6-48.6 1-84.7-11.6-112.3h45.1c17.2 0 31.7-14.4 31.7-32.1zM710.1 620c27.1 29.1 45.7 58.5 53.7 84.3H264.3c8-25.8 26.5-55.3 53.4-84.3 37.5-40.5 86.8-75.6 135.2-96.2 2.8-1.2 5.3-2.8 7.6-4.6 1.6 0.1 3.2 0.1 4.7 0.1h91c3.3 0 6.6-0.2 9.9-0.5 2.4 2.1 5.1 3.8 8.1 5 48.7 20.5 98.2 55.6 135.9 96.2z m48.2-472.6c11.2 11.4 10.9 45.3 10.3 92.2-0.1 11.3-0.3 24.1-0.3 37.7 0 13.2-4.9 28.5-14 44.9H273.8c-9-16.4-13.9-31.7-13.9-44.9 0-87 1.8-118.6 22.2-131.7 17.9-11.5 55.1-15.9 109.3-17.6h252.4c61.7 1.8 101.8 6.6 114.5 19.4z" p-id="7253" fill="#8a8a8a"></path></svg>