<?xml version="1.0" encoding="utf-8"?>
<svg version="1.1" xmlns:xlink="http://www.w3.org/1999/xlink" width="320px" height="96px" xmlns="http://www.w3.org/2000/svg">
  <defs>
    <pattern id="BGPattern" patternUnits="userSpaceOnUse" alignment="0 0" imageRepeat="None" />
    <mask fill="white" id="Clip58">
      <path d="M 0 90  L 0 0  L 320 0  L 320 90  L 168.97196261682245 90  L 160.37383177570098 96  L 151.7757009345795 90  L 0 90  Z " fill-rule="evenodd" />
    </mask>
  </defs>
  <g transform="matrix(1 0 0 1 -402 -225 )">
    <path d="M 0 90  L 0 0  L 320 0  L 320 90  L 168.97196261682245 90  L 160.37383177570098 96  L 151.7757009345795 90  L 0 90  Z " fill-rule="nonzero" fill="rgba(0, 0, 0, 0.8)" stroke="none" transform="matrix(1 0 0 1 402 225 )" class="fill" />
    <path d="M 0 90  L 0 0  L 320 0  L 320 90  L 168.97196261682245 90  L 160.37383177570098 96  L 151.7757009345795 90  L 0 90  Z " stroke-width="0" stroke-dasharray="0" stroke="rgba(215, 215, 215, 1)" fill="none" transform="matrix(1 0 0 1 402 225 )" class="stroke" mask="url(#Clip58)" />
  </g>
</svg>