<?xml version="1.0" encoding="utf-8"?>
<svg version="1.1" xmlns:xlink="http://www.w3.org/1999/xlink" width="12px" height="12px" xmlns="http://www.w3.org/2000/svg">
  <defs>
    <pattern id="BGPattern" patternUnits="userSpaceOnUse" alignment="0 0" imageRepeat="None" />
    <mask fill="white" id="Clip257">
      <path d="M 11.35750139431121 0.07357859531772526  C 11.51366424986057 -0.020066889632108342  11.66536530953709 -0.015607580824974043  11.812604573340769 0.08695652173913082  C 11.959843837144453 0.19397993311036732  12.020078081427776 0.33667781493868354  11.993307306190742 0.5150501672240808  L 10.279977691020637 10.789297658862877  C 10.257668711656443 10.918617614269788  10.18627997769102 11.018952062430323  10.065811489124373 11.090301003344482  C 10.00334634690463 11.12597547380156  9.934188510875629 11.143812709030101  9.858337981037367 11.143812709030101  C 9.80925822643614 11.143812709030101  9.755716675962075 11.132664437012263  9.69771332961517 11.110367892976589  L 6.170663692136085 9.672240802675585  L 4.176240936977133 11.85953177257525  C 4.095928611266034 11.953177257525084  3.9910764082543224 12  3.8616843279419966 12  C 3.7992191857222535 12  3.7479085331846065 11.99108138238573  3.7077523703290574 11.97324414715719  C 3.6229782487451203 11.942028985507246  3.5560513106525384 11.889632107023411  3.5069715560513104 11.816053511705686  C 3.457891801450084 11.74247491638796  3.4333519241494703 11.661092530657747  3.4333519241494703 11.57190635451505  L 3.4333519241494703 8.548494983277592  L 0.27440044617958725 7.25752508361204  C 0.10931399888455104 7.19509476031215  0.02007808142777468 7.0724637681159415  0.006692693809258227 6.889632107023411  C -0.006692693809258227 6.71571906354515  0.06469604015616284 6.58416945373467  0.22085889570552147 6.494983277591974  L 11.35750139431121 0.07357859531772526  Z M 6.230897936419408 8.76923076923077  L 9.523703290574456 10.11371237458194  L 11.002788622420525 1.264214046822743  L 1.4054656999442277 6.795986622073578  L 3.654210819854992 7.7123745819398  L 9.430005577244842 3.438127090301003  L 6.230897936419408 8.76923076923077  Z " fill-rule="evenodd" />
    </mask>
  </defs>
  <g transform="matrix(1 0 0 1 -162 -151 )">
    <path d="M 11.35750139431121 0.07357859531772526  C 11.51366424986057 -0.020066889632108342  11.66536530953709 -0.015607580824974043  11.812604573340769 0.08695652173913082  C 11.959843837144453 0.19397993311036732  12.020078081427776 0.33667781493868354  11.993307306190742 0.5150501672240808  L 10.279977691020637 10.789297658862877  C 10.257668711656443 10.918617614269788  10.18627997769102 11.018952062430323  10.065811489124373 11.090301003344482  C 10.00334634690463 11.12597547380156  9.934188510875629 11.143812709030101  9.858337981037367 11.143812709030101  C 9.80925822643614 11.143812709030101  9.755716675962075 11.132664437012263  9.69771332961517 11.110367892976589  L 6.170663692136085 9.672240802675585  L 4.176240936977133 11.85953177257525  C 4.095928611266034 11.953177257525084  3.9910764082543224 12  3.8616843279419966 12  C 3.7992191857222535 12  3.7479085331846065 11.99108138238573  3.7077523703290574 11.97324414715719  C 3.6229782487451203 11.942028985507246  3.5560513106525384 11.889632107023411  3.5069715560513104 11.816053511705686  C 3.457891801450084 11.74247491638796  3.4333519241494703 11.661092530657747  3.4333519241494703 11.57190635451505  L 3.4333519241494703 8.548494983277592  L 0.27440044617958725 7.25752508361204  C 0.10931399888455104 7.19509476031215  0.02007808142777468 7.0724637681159415  0.006692693809258227 6.889632107023411  C -0.006692693809258227 6.71571906354515  0.06469604015616284 6.58416945373467  0.22085889570552147 6.494983277591974  L 11.35750139431121 0.07357859531772526  Z M 6.230897936419408 8.76923076923077  L 9.523703290574456 10.11371237458194  L 11.002788622420525 1.264214046822743  L 1.4054656999442277 6.795986622073578  L 3.654210819854992 7.7123745819398  L 9.430005577244842 3.438127090301003  L 6.230897936419408 8.76923076923077  Z " fill-rule="nonzero" fill="rgba(127, 127, 127, 1)" stroke="none" transform="matrix(1 0 0 1 162 151 )" class="fill" />
    <path d="M 11.35750139431121 0.07357859531772526  C 11.51366424986057 -0.020066889632108342  11.66536530953709 -0.015607580824974043  11.812604573340769 0.08695652173913082  C 11.959843837144453 0.19397993311036732  12.020078081427776 0.33667781493868354  11.993307306190742 0.5150501672240808  L 10.279977691020637 10.789297658862877  C 10.257668711656443 10.918617614269788  10.18627997769102 11.018952062430323  10.065811489124373 11.090301003344482  C 10.00334634690463 11.12597547380156  9.934188510875629 11.143812709030101  9.858337981037367 11.143812709030101  C 9.80925822643614 11.143812709030101  9.755716675962075 11.132664437012263  9.69771332961517 11.110367892976589  L 6.170663692136085 9.672240802675585  L 4.176240936977133 11.85953177257525  C 4.095928611266034 11.953177257525084  3.9910764082543224 12  3.8616843279419966 12  C 3.7992191857222535 12  3.7479085331846065 11.99108138238573  3.7077523703290574 11.97324414715719  C 3.6229782487451203 11.942028985507246  3.5560513106525384 11.889632107023411  3.5069715560513104 11.816053511705686  C 3.457891801450084 11.74247491638796  3.4333519241494703 11.661092530657747  3.4333519241494703 11.57190635451505  L 3.4333519241494703 8.548494983277592  L 0.27440044617958725 7.25752508361204  C 0.10931399888455104 7.19509476031215  0.02007808142777468 7.0724637681159415  0.006692693809258227 6.889632107023411  C -0.006692693809258227 6.71571906354515  0.06469604015616284 6.58416945373467  0.22085889570552147 6.494983277591974  L 11.35750139431121 0.07357859531772526  Z " stroke-width="0" stroke-dasharray="0" stroke="rgba(255, 255, 255, 0)" fill="none" transform="matrix(1 0 0 1 162 151 )" class="stroke" mask="url(#Clip257)" />
    <path d="M 6.230897936419408 8.76923076923077  L 9.523703290574456 10.11371237458194  L 11.002788622420525 1.264214046822743  L 1.4054656999442277 6.795986622073578  L 3.654210819854992 7.7123745819398  L 9.430005577244842 3.438127090301003  L 6.230897936419408 8.76923076923077  Z " stroke-width="0" stroke-dasharray="0" stroke="rgba(255, 255, 255, 0)" fill="none" transform="matrix(1 0 0 1 162 151 )" class="stroke" mask="url(#Clip257)" />
  </g>
</svg>