<?xml version="1.0" encoding="utf-8"?>
<svg version="1.1" xmlns:xlink="http://www.w3.org/1999/xlink" width="12px" height="12px" xmlns="http://www.w3.org/2000/svg">
  <defs>
    <pattern id="BGPattern" patternUnits="userSpaceOnUse" alignment="0 0" imageRepeat="None" />
    <mask fill="white" id="Clip110">
      <path d="M 2.79347054648687 9.204545454545455  C 3.111426543647977 9.522727272727272  3.2704045422285306 9.90909090909091  3.2704045422285306 10.363636363636363  C 3.2704045422285306 10.818181818181818  3.111426543647977 11.204545454545457  2.79347054648687 11.522727272727273  C 2.475514549325763 11.84090909090909  2.0894251242015613 12  1.6352022711142653 12  C 1.1809794180269697 12  0.794889992902768 11.84090909090909  0.47693399574166073 11.522727272727273  C 0.15897799858055356 11.204545454545457  0 10.818181818181818  0 10.363636363636363  C 0 9.90909090909091  0.15897799858055356 9.522727272727272  0.47693399574166073 9.204545454545455  C 0.794889992902768 8.886363636363637  1.1809794180269697 8.727272727272727  1.6352022711142653 8.727272727272727  C 2.0894251242015613 8.727272727272727  2.475514549325763 8.886363636363637  2.79347054648687 9.204545454545455  Z M 6.945351312987935 8.803977272727273  C 7.328601845280341 9.633522727272727  7.557132718239886 10.50284090909091  7.630943931866572 11.411931818181818  C 7.642299503193755 11.571022727272728  7.59403832505323 11.707386363636365  7.486160397444997 11.821022727272727  C 7.383960255500356 11.940340909090908  7.250532292405962 12  7.085876508161817 12  L 5.936124911284599 12  C 5.794180269694819 12  5.672107877927608 11.953125  5.569907735982967 11.859375  C 5.467707594038325 11.765625  5.410929737402413 11.647727272727273  5.399574166075231 11.505681818181818  C 5.274662881476225 10.204545454545453  4.750887154009937 9.092329545454547  3.828246983676366 8.16903409090909  C 2.905606813342796 7.245738636363636  1.7941802696948193 6.721590909090908  0.49396735273243436 6.59659090909091  C 0.3520227111426544 6.585227272727273  0.234208658623137 6.52840909090909  0.14052519517388218 6.426136363636363  C 0.0468417317246274 6.323863636363637  0 6.201704545454546  0 6.05965909090909  L 0 4.909090909090908  C 0 4.744318181818181  0.05961674946770759 4.610795454545453  0.17885024840312277 4.5085227272727275  C 0.27537260468417324 4.411931818181818  0.397444996451384 4.363636363636363  0.5450674237047551 4.363636363636363  L 0.5876508161816891 4.363636363636363  C 1.4960965223562812 4.4375  2.3647977288857347 4.666193181818182  3.1937544357700496 5.049715909090908  C 4.022711142654365 5.433238636363637  4.757984386089426 5.948863636363637  5.399574166075231 6.59659090909091  C 6.046841731724626 7.238636363636363  6.562100780695529 7.974431818181817  6.945351312987935 8.803977272727273  Z M 10.969481902058197 7.154829545454545  C 11.577004968062457 8.515624999999998  11.917672107877928 9.94034090909091  11.991483321504614 11.428977272727273  C 12.002838892831797 11.582386363636363  11.951738821859475 11.715909090909092  11.83818310858765 11.829545454545455  C 11.735982966643009 11.943181818181818  11.605393896380413 12  11.446415897799858 12  L 10.228530872959546 12  C 10.080908445706175 12  9.954577714691272 11.950284090909092  9.849538679914833 11.850852272727273  C 9.744499645138397 11.751420454545453  9.689141234918381 11.630681818181818  9.683463449254791 11.488636363636363  C 9.615330021291696 10.267045454545457  9.328601845280343 9.106534090909092  8.823278921220723 8.007102272727273  C 8.317955997161107 6.907670454545455  7.6607523066004255 5.953125  6.85166784953868 5.143465909090908  C 6.042583392476935 4.333806818181818  5.088715400993612 3.676136363636363  3.9900638750887154 3.170454545454545  C 2.891412349183818 2.6647727272727257  1.731724627395316 2.3749999999999982  0.511000709723208 2.3011363636363638  C 0.36905606813342795 2.2954545454545454  0.24840312278211496 2.240056818181818  0.149041873669269 2.134943181818181  C 0.04968062455642299 2.0298295454545445  0 1.9062499999999982  0 1.764204545454545  L 0 0.545454545454545  C 0 0.38636363636363535  0.05677785663591199 0.2556818181818188  0.17033356990773596 0.15340909090909127  C 0.27253371185237757 0.05113636363636376  0.397444996451384 0  0.5450674237047551 0  L 0.5706174591909156 0  C 2.05819730305181 0.07386363636363447  3.4819020581973037 0.41477272727272574  4.841731724627396 1.0227272727272725  C 6.2015613910574885 1.630681818181818  7.409510290986515 2.4659090909090904  8.465578424414478 3.5284090909090913  C 9.527324343506034 4.5852272727272725  10.36195883605394 5.79403409090909  10.969481902058197 7.154829545454545  Z " fill-rule="evenodd" />
    </mask>
  </defs>
  <g transform="matrix(1 0 0 1 -444 -151 )">
    <path d="M 2.79347054648687 9.204545454545455  C 3.111426543647977 9.522727272727272  3.2704045422285306 9.90909090909091  3.2704045422285306 10.363636363636363  C 3.2704045422285306 10.818181818181818  3.111426543647977 11.204545454545457  2.79347054648687 11.522727272727273  C 2.475514549325763 11.84090909090909  2.0894251242015613 12  1.6352022711142653 12  C 1.1809794180269697 12  0.794889992902768 11.84090909090909  0.47693399574166073 11.522727272727273  C 0.15897799858055356 11.204545454545457  0 10.818181818181818  0 10.363636363636363  C 0 9.90909090909091  0.15897799858055356 9.522727272727272  0.47693399574166073 9.204545454545455  C 0.794889992902768 8.886363636363637  1.1809794180269697 8.727272727272727  1.6352022711142653 8.727272727272727  C 2.0894251242015613 8.727272727272727  2.475514549325763 8.886363636363637  2.79347054648687 9.204545454545455  Z M 6.945351312987935 8.803977272727273  C 7.328601845280341 9.633522727272727  7.557132718239886 10.50284090909091  7.630943931866572 11.411931818181818  C 7.642299503193755 11.571022727272728  7.59403832505323 11.707386363636365  7.486160397444997 11.821022727272727  C 7.383960255500356 11.940340909090908  7.250532292405962 12  7.085876508161817 12  L 5.936124911284599 12  C 5.794180269694819 12  5.672107877927608 11.953125  5.569907735982967 11.859375  C 5.467707594038325 11.765625  5.410929737402413 11.647727272727273  5.399574166075231 11.505681818181818  C 5.274662881476225 10.204545454545453  4.750887154009937 9.092329545454547  3.828246983676366 8.16903409090909  C 2.905606813342796 7.245738636363636  1.7941802696948193 6.721590909090908  0.49396735273243436 6.59659090909091  C 0.3520227111426544 6.585227272727273  0.234208658623137 6.52840909090909  0.14052519517388218 6.426136363636363  C 0.0468417317246274 6.323863636363637  0 6.201704545454546  0 6.05965909090909  L 0 4.909090909090908  C 0 4.744318181818181  0.05961674946770759 4.610795454545453  0.17885024840312277 4.5085227272727275  C 0.27537260468417324 4.411931818181818  0.397444996451384 4.363636363636363  0.5450674237047551 4.363636363636363  L 0.5876508161816891 4.363636363636363  C 1.4960965223562812 4.4375  2.3647977288857347 4.666193181818182  3.1937544357700496 5.049715909090908  C 4.022711142654365 5.433238636363637  4.757984386089426 5.948863636363637  5.399574166075231 6.59659090909091  C 6.046841731724626 7.238636363636363  6.562100780695529 7.974431818181817  6.945351312987935 8.803977272727273  Z M 10.969481902058197 7.154829545454545  C 11.577004968062457 8.515624999999998  11.917672107877928 9.94034090909091  11.991483321504614 11.428977272727273  C 12.002838892831797 11.582386363636363  11.951738821859475 11.715909090909092  11.83818310858765 11.829545454545455  C 11.735982966643009 11.943181818181818  11.605393896380413 12  11.446415897799858 12  L 10.228530872959546 12  C 10.080908445706175 12  9.954577714691272 11.950284090909092  9.849538679914833 11.850852272727273  C 9.744499645138397 11.751420454545453  9.689141234918381 11.630681818181818  9.683463449254791 11.488636363636363  C 9.615330021291696 10.267045454545457  9.328601845280343 9.106534090909092  8.823278921220723 8.007102272727273  C 8.317955997161107 6.907670454545455  7.6607523066004255 5.953125  6.85166784953868 5.143465909090908  C 6.042583392476935 4.333806818181818  5.088715400993612 3.676136363636363  3.9900638750887154 3.170454545454545  C 2.891412349183818 2.6647727272727257  1.731724627395316 2.3749999999999982  0.511000709723208 2.3011363636363638  C 0.36905606813342795 2.2954545454545454  0.24840312278211496 2.240056818181818  0.149041873669269 2.134943181818181  C 0.04968062455642299 2.0298295454545445  0 1.9062499999999982  0 1.764204545454545  L 0 0.545454545454545  C 0 0.38636363636363535  0.05677785663591199 0.2556818181818188  0.17033356990773596 0.15340909090909127  C 0.27253371185237757 0.05113636363636376  0.397444996451384 0  0.5450674237047551 0  L 0.5706174591909156 0  C 2.05819730305181 0.07386363636363447  3.4819020581973037 0.41477272727272574  4.841731724627396 1.0227272727272725  C 6.2015613910574885 1.630681818181818  7.409510290986515 2.4659090909090904  8.465578424414478 3.5284090909090913  C 9.527324343506034 4.5852272727272725  10.36195883605394 5.79403409090909  10.969481902058197 7.154829545454545  Z " fill-rule="nonzero" fill="rgba(127, 127, 127, 1)" stroke="none" transform="matrix(1 0 0 1 444 151 )" class="fill" />
    <path d="M 2.79347054648687 9.204545454545455  C 3.111426543647977 9.522727272727272  3.2704045422285306 9.90909090909091  3.2704045422285306 10.363636363636363  C 3.2704045422285306 10.818181818181818  3.111426543647977 11.204545454545457  2.79347054648687 11.522727272727273  C 2.475514549325763 11.84090909090909  2.0894251242015613 12  1.6352022711142653 12  C 1.1809794180269697 12  0.794889992902768 11.84090909090909  0.47693399574166073 11.522727272727273  C 0.15897799858055356 11.204545454545457  0 10.818181818181818  0 10.363636363636363  C 0 9.90909090909091  0.15897799858055356 9.522727272727272  0.47693399574166073 9.204545454545455  C 0.794889992902768 8.886363636363637  1.1809794180269697 8.727272727272727  1.6352022711142653 8.727272727272727  C 2.0894251242015613 8.727272727272727  2.475514549325763 8.886363636363637  2.79347054648687 9.204545454545455  Z " stroke-width="0" stroke-dasharray="0" stroke="rgba(255, 255, 255, 0)" fill="none" transform="matrix(1 0 0 1 444 151 )" class="stroke" mask="url(#Clip110)" />
    <path d="M 6.945351312987935 8.803977272727273  C 7.328601845280341 9.633522727272727  7.557132718239886 10.50284090909091  7.630943931866572 11.411931818181818  C 7.642299503193755 11.571022727272728  7.59403832505323 11.707386363636365  7.486160397444997 11.821022727272727  C 7.383960255500356 11.940340909090908  7.250532292405962 12  7.085876508161817 12  L 5.936124911284599 12  C 5.794180269694819 12  5.672107877927608 11.953125  5.569907735982967 11.859375  C 5.467707594038325 11.765625  5.410929737402413 11.647727272727273  5.399574166075231 11.505681818181818  C 5.274662881476225 10.204545454545453  4.750887154009937 9.092329545454547  3.828246983676366 8.16903409090909  C 2.905606813342796 7.245738636363636  1.7941802696948193 6.721590909090908  0.49396735273243436 6.59659090909091  C 0.3520227111426544 6.585227272727273  0.234208658623137 6.52840909090909  0.14052519517388218 6.426136363636363  C 0.0468417317246274 6.323863636363637  0 6.201704545454546  0 6.05965909090909  L 0 4.909090909090908  C 0 4.744318181818181  0.05961674946770759 4.610795454545453  0.17885024840312277 4.5085227272727275  C 0.27537260468417324 4.411931818181818  0.397444996451384 4.363636363636363  0.5450674237047551 4.363636363636363  L 0.5876508161816891 4.363636363636363  C 1.4960965223562812 4.4375  2.3647977288857347 4.666193181818182  3.1937544357700496 5.049715909090908  C 4.022711142654365 5.433238636363637  4.757984386089426 5.948863636363637  5.399574166075231 6.59659090909091  C 6.046841731724626 7.238636363636363  6.562100780695529 7.974431818181817  6.945351312987935 8.803977272727273  Z " stroke-width="0" stroke-dasharray="0" stroke="rgba(255, 255, 255, 0)" fill="none" transform="matrix(1 0 0 1 444 151 )" class="stroke" mask="url(#Clip110)" />
    <path d="M 10.969481902058197 7.154829545454545  C 11.577004968062457 8.515624999999998  11.917672107877928 9.94034090909091  11.991483321504614 11.428977272727273  C 12.002838892831797 11.582386363636363  11.951738821859475 11.715909090909092  11.83818310858765 11.829545454545455  C 11.735982966643009 11.943181818181818  11.605393896380413 12  11.446415897799858 12  L 10.228530872959546 12  C 10.080908445706175 12  9.954577714691272 11.950284090909092  9.849538679914833 11.850852272727273  C 9.744499645138397 11.751420454545453  9.689141234918381 11.630681818181818  9.683463449254791 11.488636363636363  C 9.615330021291696 10.267045454545457  9.328601845280343 9.106534090909092  8.823278921220723 8.007102272727273  C 8.317955997161107 6.907670454545455  7.6607523066004255 5.953125  6.85166784953868 5.143465909090908  C 6.042583392476935 4.333806818181818  5.088715400993612 3.676136363636363  3.9900638750887154 3.170454545454545  C 2.891412349183818 2.6647727272727257  1.731724627395316 2.3749999999999982  0.511000709723208 2.3011363636363638  C 0.36905606813342795 2.2954545454545454  0.24840312278211496 2.240056818181818  0.149041873669269 2.134943181818181  C 0.04968062455642299 2.0298295454545445  0 1.9062499999999982  0 1.764204545454545  L 0 0.545454545454545  C 0 0.38636363636363535  0.05677785663591199 0.2556818181818188  0.17033356990773596 0.15340909090909127  C 0.27253371185237757 0.05113636363636376  0.397444996451384 0  0.5450674237047551 0  L 0.5706174591909156 0  C 2.05819730305181 0.07386363636363447  3.4819020581973037 0.41477272727272574  4.841731724627396 1.0227272727272725  C 6.2015613910574885 1.630681818181818  7.409510290986515 2.4659090909090904  8.465578424414478 3.5284090909090913  C 9.527324343506034 4.5852272727272725  10.36195883605394 5.79403409090909  10.969481902058197 7.154829545454545  Z " stroke-width="0" stroke-dasharray="0" stroke="rgba(255, 255, 255, 0)" fill="none" transform="matrix(1 0 0 1 444 151 )" class="stroke" mask="url(#Clip110)" />
  </g>
</svg>