<?xml version="1.0" encoding="utf-8"?>
<svg version="1.1" xmlns:xlink="http://www.w3.org/1999/xlink" width="9px" height="16px" xmlns="http://www.w3.org/2000/svg">
  <defs>
    <pattern id="BGPattern" patternUnits="userSpaceOnUse" alignment="0 0" imageRepeat="None" />
    <mask fill="white" id="Clip117">
      <path d="M 8.845360824742267 0.96192384769539  C 8.948453608247425 1.068804275217099  9 1.1917167668670654  9 1.330661322645291  C 9 1.469605878423513  8.948453608247425 1.5925183700734795  8.845360824742267 1.6993987975951903  L 2.768041237113402 8  L 8.845360824742267 14.30060120240481  C 8.948453608247425 14.407481629926519  9 14.530394121576485  9 14.669338677354709  C 9 14.808283233132933  8.948453608247425 14.9311957247829  8.845360824742267 15.03807615230461  L 8.072164948453608 15.839679358717435  C 7.969072164948455 15.946559786239145  7.850515463917527 16  7.716494845360824 16  C 7.582474226804125 16  7.463917525773198 15.946559786239145  7.360824742268041 15.839679358717435  L 0.1546391752577324 8.3687374749499  C 0.051546391752577136 8.261857047428188  0 8.138944555778222  0 8  C 0 7.861055444221776  0.051546391752577136 7.73814295257181  0.1546391752577324 7.631262525050101  L 7.360824742268041 0.1603206412825653  C 7.463917525773198 0.053440213760854505  7.582474226804125 0  7.716494845360824 0  C 7.850515463917527 0  7.969072164948455 0.053440213760854505  8.072164948453608 0.1603206412825653  L 8.845360824742267 0.96192384769539  Z " fill-rule="evenodd" />
    </mask>
  </defs>
  <g transform="matrix(1 0 0 1 -1144 -186 )">
    <path d="M 8.845360824742267 0.96192384769539  C 8.948453608247425 1.068804275217099  9 1.1917167668670654  9 1.330661322645291  C 9 1.469605878423513  8.948453608247425 1.5925183700734795  8.845360824742267 1.6993987975951903  L 2.768041237113402 8  L 8.845360824742267 14.30060120240481  C 8.948453608247425 14.407481629926519  9 14.530394121576485  9 14.669338677354709  C 9 14.808283233132933  8.948453608247425 14.9311957247829  8.845360824742267 15.03807615230461  L 8.072164948453608 15.839679358717435  C 7.969072164948455 15.946559786239145  7.850515463917527 16  7.716494845360824 16  C 7.582474226804125 16  7.463917525773198 15.946559786239145  7.360824742268041 15.839679358717435  L 0.1546391752577324 8.3687374749499  C 0.051546391752577136 8.261857047428188  0 8.138944555778222  0 8  C 0 7.861055444221776  0.051546391752577136 7.73814295257181  0.1546391752577324 7.631262525050101  L 7.360824742268041 0.1603206412825653  C 7.463917525773198 0.053440213760854505  7.582474226804125 0  7.716494845360824 0  C 7.850515463917527 0  7.969072164948455 0.053440213760854505  8.072164948453608 0.1603206412825653  L 8.845360824742267 0.96192384769539  Z " fill-rule="nonzero" fill="rgba(0, 0, 0, 1)" stroke="none" transform="matrix(1 0 0 1 1144 186 )" class="fill" />
    <path d="M 8.845360824742267 0.96192384769539  C 8.948453608247425 1.068804275217099  9 1.1917167668670654  9 1.330661322645291  C 9 1.469605878423513  8.948453608247425 1.5925183700734795  8.845360824742267 1.6993987975951903  L 2.768041237113402 8  L 8.845360824742267 14.30060120240481  C 8.948453608247425 14.407481629926519  9 14.530394121576485  9 14.669338677354709  C 9 14.808283233132933  8.948453608247425 14.9311957247829  8.845360824742267 15.03807615230461  L 8.072164948453608 15.839679358717435  C 7.969072164948455 15.946559786239145  7.850515463917527 16  7.716494845360824 16  C 7.582474226804125 16  7.463917525773198 15.946559786239145  7.360824742268041 15.839679358717435  L 0.1546391752577324 8.3687374749499  C 0.051546391752577136 8.261857047428188  0 8.138944555778222  0 8  C 0 7.861055444221776  0.051546391752577136 7.73814295257181  0.1546391752577324 7.631262525050101  L 7.360824742268041 0.1603206412825653  C 7.463917525773198 0.053440213760854505  7.582474226804125 0  7.716494845360824 0  C 7.850515463917527 0  7.969072164948455 0.053440213760854505  8.072164948453608 0.1603206412825653  L 8.845360824742267 0.96192384769539  Z " stroke-width="0" stroke-dasharray="0" stroke="rgba(215, 215, 215, 1)" fill="none" transform="matrix(1 0 0 1 1144 186 )" class="stroke" mask="url(#Clip117)" />
  </g>
</svg>